<svg width="32" height="24" viewBox="0 0 32 24" fill="none" xmlns="http://www.w3.org/2000/svg">
<path d="M10.5003 0.25C12.167 0.25 13.0003 1.08333 13.0003 2.75C13.0003 4.41667 12.167 5.25 10.5003 5.25C8.83365 5.25 8.00031 4.41667 8.00031 2.75C8.00031 1.08333 8.83365 0.25 10.5003 0.25ZM2.74281 23.2575L0.757812 21.7375L9.20031 10.72C9.49971 10.329 9.8732 10.0007 10.2995 9.75406C10.7257 9.50738 11.1964 9.34708 11.6846 9.28231C12.1728 9.21754 12.669 9.24957 13.1448 9.37657C13.6207 9.50358 14.0668 9.72306 14.4578 10.0225L14.5303 10.08L19.3303 13.9525C19.5886 14.1604 19.9188 14.2571 20.2484 14.2215C20.578 14.1858 20.8799 14.0208 21.0878 13.7625L29.5253 3.22L31.4753 4.78L23.0453 15.32L23.0353 15.3325C22.7262 15.7161 22.3444 16.035 21.912 16.2711C21.4795 16.5071 21.0048 16.6556 20.5149 16.708C20.025 16.7605 19.5296 16.7159 19.057 16.5769C18.5843 16.4378 18.1437 16.2069 17.7603 15.8975L12.9603 12.0275L12.9353 12.0075C12.6723 11.8067 12.3403 11.7184 12.0123 11.762C11.6842 11.8056 11.3868 11.9775 11.1853 12.24L2.74281 23.2575Z" fill="#918889"/>
</svg>
