<svg width="121" height="52" viewBox="0 0 121 52" fill="none" xmlns="http://www.w3.org/2000/svg">
<path d="M14.0007 44.9432C11.6037 44.9432 9.78201 44.296 8.53558 43.0016C7.28916 41.6593 6.66595 39.8137 6.66595 37.4646C6.66595 34.6362 7.07343 31.8078 7.8884 28.9794C8.75131 26.1509 9.78201 23.4184 10.9805 20.7817C12.2269 18.0971 13.4494 15.6043 14.6479 13.3032C15.8943 10.9541 16.901 8.89276 17.668 7.119C18.0995 6.11227 18.3152 5.22539 18.3152 4.45836C18.3152 3.45163 17.9077 2.94827 17.0928 2.94827C16.5175 2.94827 15.6786 3.35575 14.5759 4.17072C13.4733 4.93776 12.4187 6.04036 11.4119 7.47854C9.25467 10.4987 7.60076 13.3271 6.45022 15.9638C5.29967 18.6005 4.7244 20.8057 4.7244 22.5795C4.7244 23.3944 4.86822 24.0895 5.15585 24.6648C5.25173 24.8086 5.29967 25.0244 5.29967 25.312C5.29967 25.6955 5.08394 25.8873 4.65249 25.8873C4.22104 25.8873 3.6937 25.6476 3.07049 25.1682C2.30346 24.545 1.72819 23.7779 1.34467 22.8671C1.0091 21.9562 0.841309 20.9255 0.841309 19.775C0.841309 18.193 1.12894 16.5151 1.70422 14.7414C2.32743 12.9676 3.1424 11.2418 4.14913 9.56391C5.15585 7.83809 6.3064 6.328 7.60076 5.03364C9.13482 3.49957 10.8127 2.27712 12.6344 1.36627C14.504 0.455424 16.0381 0 17.2366 0C20.2088 0 22.4859 0.599242 24.0679 1.79773C25.6979 2.99621 26.5129 4.45836 26.5129 6.18418C26.5129 6.75945 26.393 7.40663 26.1533 8.12572C25.4342 10.2351 24.4515 12.656 23.205 15.3885C22.0066 18.0732 20.7601 20.8536 19.4658 23.73C18.2193 26.6064 17.1407 29.3868 16.2299 32.0715C15.3669 34.7561 14.9355 37.1291 14.9355 39.1905C14.9355 39.9575 15.0314 40.5807 15.2231 41.0601C15.4628 41.4915 15.8224 41.7073 16.3018 41.7073C17.3085 41.7073 18.459 40.8923 19.7534 39.2624C21.0478 37.5845 22.438 35.3553 23.9241 32.5748C25.4102 29.7943 26.9443 26.7262 28.5263 23.3705C29.7727 19.8709 30.9472 16.8507 32.0499 14.3099C33.2004 11.7212 34.0873 9.94742 34.7105 8.98863C35.5734 7.74221 36.3165 6.92724 36.9397 6.54372C37.5629 6.11227 38.258 5.89654 39.025 5.89654C39.84 5.8486 40.8707 5.82463 42.1171 5.82463C43.4115 5.72876 44.4422 5.80067 45.2092 6.04036C45.9762 6.23212 46.2399 6.47182 46.0002 6.75945C44.3223 8.96466 42.7164 11.5534 41.1823 14.5256C39.6962 17.4979 38.3539 20.542 37.1554 23.6581C36.0049 26.7742 35.094 29.6745 34.4229 32.3591C33.7517 35.0437 33.4161 37.2249 33.4161 38.9028C33.4161 40.9163 33.8955 41.923 34.8543 41.923C36.0049 41.923 37.2513 41.2279 38.5936 39.8376C39.9359 38.3995 41.2782 36.5538 42.6205 34.3006C44.0107 31.9995 45.3291 29.5546 46.5755 26.9659C47.0069 26.0551 47.5822 24.6408 48.3013 22.7233C49.0204 20.8057 49.7635 18.6964 50.5305 16.3953C51.2975 14.0942 51.9207 11.865 52.4001 9.70773C52.9275 7.55045 53.1911 5.7767 53.1911 4.38645C53.1911 2.75651 52.7836 1.94154 51.9687 1.94154C51.5852 1.94154 51.3934 1.79772 51.3934 1.51009C51.3934 1.36627 51.4893 1.19848 51.681 1.00673C51.8728 0.814969 52.1365 0.695119 52.472 0.647178C53.287 0.455423 54.1259 0.359545 54.9889 0.359545C57.242 0.359545 58.8 1.0307 59.6629 2.373C60.5259 3.7153 60.9573 5.34524 60.9573 7.26281C60.9573 8.84482 60.7416 10.5227 60.3101 12.2965C59.8787 14.0223 59.3753 15.6282 58.8 17.1144C57.8892 19.4634 56.7866 21.9083 55.4922 24.4491C54.1979 26.9899 52.7357 29.4827 51.1058 31.9276C49.4758 34.3246 47.726 36.5058 45.8564 38.4714C44.0347 40.4369 42.1411 41.9949 40.1756 43.1455C38.258 44.296 36.3165 44.8713 34.3509 44.8713C31.6184 44.8713 29.5091 44.0803 28.0229 42.4983C26.5368 40.8683 25.7698 38.5912 25.7219 35.6669C24.0919 38.3036 22.2942 40.5088 20.3287 42.2825C18.4111 44.0563 16.3018 44.9432 14.0007 44.9432Z" fill="white"/>
<path d="M62.2753 44.4398C59.351 44.4398 56.93 43.5769 55.0124 41.8511C53.0949 40.1253 52.1361 37.7283 52.1361 34.6602C52.1361 33.6055 52.2559 32.5029 52.4956 31.3524C52.7353 30.2018 53.1188 29.2191 53.6462 28.4041C54.1735 27.5891 54.8686 27.1816 55.7315 27.1816C56.2589 27.1816 56.6424 27.3494 56.8821 27.685C57.4574 26.5824 58.0806 25.4798 58.7517 24.3772C59.4229 23.2746 60.094 22.148 60.7652 20.9975C61.5322 19.751 62.4191 18.3848 63.4258 16.8986C64.4805 15.3646 65.679 14.0223 67.0213 12.8717C68.3636 11.6732 69.8257 11.0021 71.4077 10.8583C71.5995 10.8103 71.7912 10.7864 71.983 10.7864C72.2227 10.7864 72.4384 10.7864 72.6302 10.7864C73.1575 10.7864 73.7088 10.8103 74.2841 10.8583C74.8594 10.9062 75.2908 10.9542 75.5784 11.0021C75.6743 11.05 75.7462 11.1938 75.7942 11.4335C75.8421 11.6732 75.7223 11.7931 75.4346 11.7931C75.2429 11.7931 74.8594 11.9369 74.2841 12.2245C73.7088 12.4642 73.3732 13.0635 73.2774 14.0223C73.1815 17.378 72.9658 20.7338 72.6302 24.0895C72.3425 27.4453 71.8871 30.2498 71.2639 32.5029C70.9763 33.6535 70.5208 34.8999 69.8976 36.2422C69.2744 37.5845 68.5314 38.783 67.6684 39.8376C66.8055 40.8923 65.8947 41.6114 64.9359 41.9949C65.8947 41.9949 66.9014 41.7073 67.9561 41.132C69.0587 40.5088 70.0654 39.7657 70.9763 38.9028C71.9351 38.0399 72.6541 37.2729 73.1335 36.6017C74.1882 35.1156 75.147 33.5576 76.0099 31.9276C76.9208 30.2498 77.5919 28.9554 78.0234 28.0445C78.1672 27.8048 78.335 27.685 78.5267 27.685C78.7664 27.685 78.9821 27.8288 79.1739 28.1165C79.3657 28.4041 79.4615 28.7157 79.4615 29.0513C79.4615 29.1471 79.4376 29.243 79.3896 29.3389C79.3896 29.4348 79.3657 29.5307 79.3177 29.6265C78.4548 31.3524 77.496 33.1021 76.4414 34.8759C75.4346 36.6017 74.2601 38.2077 72.9178 39.6938C71.5755 41.132 70.0415 42.2825 68.3156 43.1455C66.5898 44.0084 64.5764 44.4398 62.2753 44.4398ZM57.6012 39.9095C58.1285 39.9095 58.6558 39.7418 59.1832 39.4062C59.7105 39.0706 60.142 38.5433 60.4775 37.8242C61.1966 36.2422 61.8438 34.4205 62.4191 32.3591C62.9944 30.2977 63.4977 28.2603 63.9292 26.2468C64.3606 24.1854 64.7202 22.3637 65.0078 20.7817C65.3434 19.1518 65.5831 17.9773 65.7269 17.2582C65.0078 18.1211 64.1209 19.3435 63.0663 20.9255C62.0595 22.5075 61.0768 24.0895 60.118 25.6715C59.2071 27.2535 58.512 28.5239 58.0326 29.4827C58.0806 30.5853 57.6491 31.5681 56.7383 32.431C55.8274 33.2939 55.0364 34.1808 54.3653 35.0916V35.8826C54.3653 36.0744 54.3653 36.3141 54.3653 36.6017C54.4132 36.8894 54.4611 37.153 54.5091 37.3927C54.7488 38.1598 55.1563 38.783 55.7315 39.2624C56.3547 39.6938 56.978 39.9095 57.6012 39.9095Z" fill="white"/>
<path d="M81.2351 44.3679C80.564 44.3679 79.9168 44.296 79.2936 44.1522C78.7183 44.0563 78.0232 43.8406 77.2082 43.505C76.1535 43.0735 75.3865 42.3305 74.9071 41.2758C74.4277 40.1732 74.188 38.8788 74.188 37.3927C74.188 35.619 74.4757 33.6535 75.0509 31.4962C75.6741 29.3389 76.4651 27.1577 77.4239 24.9525C78.5265 22.5075 79.773 19.9428 81.1632 17.2582C82.6014 14.5736 84.1594 12.1287 85.8373 9.92345C87.5631 7.71824 89.3608 6.13624 91.2305 5.17745C91.7578 4.88982 92.3571 4.69806 93.0282 4.60218C93.6994 4.45836 94.3705 4.38645 95.0417 4.38645C96.336 4.38645 97.5585 4.57821 98.709 4.96172C99.1405 5.10554 99.3562 5.2973 99.3562 5.537C99.3562 5.68082 99.2124 5.87257 98.9248 6.11227C98.5892 6.35197 97.5105 7.47854 95.6888 9.492C93.9151 11.4575 91.9256 14.3818 89.7204 18.2649C89.4807 18.6964 89.1451 19.2956 88.7137 20.0626C88.3301 20.7817 87.9227 21.5248 87.4912 22.2918C87.1077 23.0588 86.7721 23.73 86.4845 24.3053C86.1968 24.8326 86.053 25.0963 86.053 25.0963C87.2994 23.2746 88.5938 21.5488 89.9361 19.9188C91.3264 18.2889 92.5728 16.8747 93.6754 15.6762C94.778 14.4298 95.545 13.5908 95.9765 13.1594C96.36 12.8717 96.9832 12.7279 97.8461 12.7279C98.8528 12.7279 99.8835 13.0395 100.938 13.6627C101.993 14.2859 102.52 15.4125 102.52 17.0425C102.52 18.0012 102.257 19.1518 101.729 20.4941C101.202 21.8364 100.603 23.1787 99.9315 24.521C99.2603 25.8154 98.709 26.9419 98.2776 27.9007C98.1817 28.1404 97.918 28.7157 97.4866 29.6265C97.0551 30.5374 96.5997 31.5921 96.1203 32.7905C95.6409 33.989 95.2094 35.1875 94.8259 36.386C94.4903 37.5365 94.3226 38.4953 94.3226 39.2624C94.3226 40.2212 94.6342 40.7005 95.2574 40.7005C95.6888 40.7005 96.2162 40.4369 96.8394 39.9095C97.4626 39.3343 98.0379 38.735 98.5652 38.1118C99.1405 37.4407 99.548 36.9373 99.7877 36.6017C100.794 35.2115 101.705 33.7254 102.52 32.1434C103.383 30.5614 104.078 29.243 104.606 28.1884C104.797 27.8528 105.037 27.685 105.325 27.685C105.66 27.685 105.948 27.8288 106.188 28.1165C106.427 28.4041 106.451 28.7397 106.259 29.1232C105.492 30.6572 104.534 32.407 103.383 34.3725C102.281 36.2901 101.106 38.0399 99.8596 39.6219C98.9008 40.8204 97.7982 41.899 96.5518 42.8578C95.3053 43.7687 93.987 44.2241 92.5967 44.2241C90.5833 44.2241 89.1691 43.6009 88.3541 42.3545C87.5871 41.108 87.2036 39.4781 87.2036 37.4646C87.2036 35.8826 87.4193 34.3006 87.8507 32.7186C88.3301 31.1366 88.8575 29.5546 89.4327 27.9726C90.056 26.2468 90.6552 24.6888 91.2305 23.2985C91.8537 21.9083 92.3331 20.9735 92.6687 20.4941C91.6619 21.2132 90.5114 22.3398 89.217 23.8738C87.9706 25.3599 86.7721 27.0858 85.6216 29.0513C84.471 31.0168 83.5122 33.0063 82.7452 35.0197C81.9782 37.0332 81.5947 38.9028 81.5947 40.6286C81.5947 41.8271 81.8583 42.738 82.3857 43.3612C82.5295 43.505 82.6014 43.6488 82.6014 43.7926C82.6014 44.1761 82.146 44.3679 81.2351 44.3679Z" fill="white"/>
<path d="M115.437 26.3187C114.67 26.3187 114.047 26.079 113.567 25.5996C113.088 25.0723 112.848 24.4011 112.848 23.5862C112.848 22.6274 113.112 21.7165 113.639 20.8536C114.166 19.9907 114.814 19.2956 115.581 18.7683C116.396 18.193 117.211 17.9054 118.026 17.9054C118.793 17.9054 119.392 18.169 119.823 18.6964C120.303 19.2237 120.542 19.8948 120.542 20.7098C120.542 21.6686 120.279 22.5795 119.751 23.4424C119.224 24.3053 118.577 25.0004 117.81 25.5277C117.043 26.0551 116.252 26.3187 115.437 26.3187ZM104.363 51.7026C103.931 51.7026 103.548 51.5348 103.212 51.1993C102.877 50.9116 102.877 50.6959 103.212 50.5521C104.603 49.9289 105.801 49.042 106.808 47.8915C107.862 46.7409 108.653 45.6143 109.181 44.5117C107.743 44.3679 107.024 43.4571 107.024 41.7792C107.024 40.8204 107.263 39.9095 107.743 39.0466C108.27 38.1837 108.917 37.4886 109.684 36.9613C110.499 36.386 111.314 36.0984 112.129 36.0984C112.896 36.0984 113.495 36.362 113.927 36.8894C114.406 37.3688 114.646 38.0159 114.646 38.8309C114.646 39.0227 114.622 39.2144 114.574 39.4062C114.574 39.55 114.55 39.7418 114.502 39.9815V40.0534C113.879 42.3065 112.752 44.4878 111.122 46.5971C109.54 48.7064 107.407 50.3843 104.722 51.6307C104.627 51.6787 104.507 51.7026 104.363 51.7026Z" fill="white"/>
</svg>
