<svg width="458" height="323" viewBox="0 0 458 323" fill="none" xmlns="http://www.w3.org/2000/svg">
<path d="M62 0H437V285H62V0Z" fill="url(#paint0_linear_94_776)"/>
<g opacity="0.2">
<path d="M203.159 83.9432C200.762 83.9432 198.941 83.296 197.694 82.0016C196.448 80.6593 195.825 78.8137 195.825 76.4646C195.825 73.6362 196.232 70.8078 197.047 67.9794C197.91 65.1509 198.941 62.4184 200.139 59.7817C201.386 57.0971 202.608 54.6043 203.807 52.3032C205.053 49.9541 206.06 47.8928 206.827 46.119C207.258 45.1123 207.474 44.2254 207.474 43.4584C207.474 42.4516 207.066 41.9483 206.251 41.9483C205.676 41.9483 204.837 42.3558 203.735 43.1707C202.632 43.9378 201.577 45.0404 200.571 46.4785C198.413 49.4987 196.759 52.3271 195.609 54.9638C194.458 57.6005 193.883 59.8057 193.883 61.5795C193.883 62.3944 194.027 63.0895 194.315 63.6648C194.41 63.8086 194.458 64.0244 194.458 64.312C194.458 64.6955 194.243 64.8873 193.811 64.8873C193.38 64.8873 192.852 64.6476 192.229 64.1682C191.462 63.545 190.887 62.7779 190.503 61.8671C190.168 60.9562 190 59.9255 190 58.775C190 57.193 190.288 55.5151 190.863 53.7414C191.486 51.9676 192.301 50.2418 193.308 48.5639C194.315 46.8381 195.465 45.328 196.759 44.0336C198.294 42.4996 199.971 41.2771 201.793 40.3663C203.663 39.4554 205.197 39 206.395 39C209.368 39 211.645 39.5992 213.227 40.7977C214.857 41.9962 215.672 43.4584 215.672 45.1842C215.672 45.7595 215.552 46.4066 215.312 47.1257C214.593 49.2351 213.61 51.656 212.364 54.3885C211.165 57.0731 209.919 59.8536 208.624 62.73C207.378 65.6064 206.299 68.3868 205.389 71.0715C204.526 73.7561 204.094 76.1291 204.094 78.1905C204.094 78.9575 204.19 79.5807 204.382 80.0601C204.622 80.4915 204.981 80.7073 205.46 80.7073C206.467 80.7073 207.618 79.8923 208.912 78.2624C210.206 76.5845 211.597 74.3553 213.083 71.5748C214.569 68.7943 216.103 65.7262 217.685 62.3705C218.931 58.8709 220.106 55.8507 221.209 53.3099C222.359 50.7212 223.246 48.9474 223.869 47.9886C224.732 46.7422 225.475 45.9272 226.098 45.5437C226.722 45.1123 227.417 44.8965 228.184 44.8965C228.999 44.8486 230.029 44.8246 231.276 44.8246C232.57 44.7288 233.601 44.8007 234.368 45.0404C235.135 45.2321 235.399 45.4718 235.159 45.7595C233.481 47.9647 231.875 50.5534 230.341 53.5256C228.855 56.4979 227.513 59.542 226.314 62.6581C225.164 65.7742 224.253 68.6745 223.582 71.3591C222.91 74.0437 222.575 76.2249 222.575 77.9028C222.575 79.9163 223.054 80.923 224.013 80.923C225.164 80.923 226.41 80.2279 227.752 78.8376C229.095 77.3995 230.437 75.5538 231.779 73.3006C233.169 70.9995 234.488 68.5546 235.734 65.9659C236.166 65.0551 236.741 63.6408 237.46 61.7233C238.179 59.8057 238.922 57.6964 239.689 55.3953C240.456 53.0942 241.079 50.865 241.559 48.7077C242.086 46.5505 242.35 44.7767 242.35 43.3865C242.35 41.7565 241.942 40.9415 241.127 40.9415C240.744 40.9415 240.552 40.7977 240.552 40.5101C240.552 40.3663 240.648 40.1985 240.84 40.0067C241.031 39.815 241.295 39.6951 241.631 39.6472C242.446 39.4554 243.285 39.3595 244.148 39.3595C246.401 39.3595 247.959 40.0307 248.822 41.373C249.685 42.7153 250.116 44.3452 250.116 46.2628C250.116 47.8448 249.9 49.5227 249.469 51.2965C249.037 53.0223 248.534 54.6282 247.959 56.1144C247.048 58.4634 245.945 60.9083 244.651 63.4491C243.357 65.9899 241.894 68.4827 240.264 70.9276C238.635 73.3246 236.885 75.5058 235.015 77.4714C233.193 79.4369 231.3 80.9949 229.334 82.1455C227.417 83.296 225.475 83.8713 223.51 83.8713C220.777 83.8713 218.668 83.0803 217.182 81.4983C215.696 79.8683 214.928 77.5912 214.881 74.6669C213.251 77.3036 211.453 79.5088 209.487 81.2825C207.57 83.0563 205.46 83.9432 203.159 83.9432Z" fill="white"/>
<path d="M251.434 83.4398C248.51 83.4398 246.089 82.5769 244.171 80.8511C242.254 79.1253 241.295 76.7283 241.295 73.6602C241.295 72.6055 241.415 71.5029 241.654 70.3524C241.894 69.2018 242.278 68.2191 242.805 67.4041C243.332 66.5891 244.027 66.1816 244.89 66.1816C245.418 66.1816 245.801 66.3494 246.041 66.685C246.616 65.5824 247.239 64.4798 247.91 63.3772C248.582 62.2746 249.253 61.148 249.924 59.9975C250.691 58.751 251.578 57.3848 252.585 55.8986C253.639 54.3646 254.838 53.0223 256.18 51.8717C257.522 50.6732 258.984 50.0021 260.566 49.8583C260.758 49.8103 260.95 49.7864 261.142 49.7864C261.381 49.7864 261.597 49.7864 261.789 49.7864C262.316 49.7864 262.867 49.8103 263.443 49.8583C264.018 49.9062 264.449 49.9541 264.737 50.0021C264.833 50.05 264.905 50.1938 264.953 50.4335C265.001 50.6732 264.881 50.7931 264.593 50.7931C264.402 50.7931 264.018 50.9369 263.443 51.2245C262.867 51.4642 262.532 52.0635 262.436 53.0223C262.34 56.378 262.124 59.7338 261.789 63.0895C261.501 66.4453 261.046 69.2498 260.423 71.5029C260.135 72.6535 259.68 73.8999 259.056 75.2422C258.433 76.5845 257.69 77.783 256.827 78.8376C255.964 79.8923 255.053 80.6114 254.095 80.9949C255.053 80.9949 256.06 80.7073 257.115 80.132C258.217 79.5088 259.224 78.7657 260.135 77.9028C261.094 77.0399 261.813 76.2729 262.292 75.6017C263.347 74.1156 264.306 72.5576 265.169 70.9276C266.079 69.2498 266.751 67.9554 267.182 67.0445C267.326 66.8048 267.494 66.685 267.685 66.685C267.925 66.685 268.141 66.8288 268.333 67.1165C268.524 67.4041 268.62 67.7157 268.62 68.0513C268.62 68.1471 268.596 68.243 268.548 68.3389C268.548 68.4348 268.524 68.5307 268.476 68.6265C267.614 70.3524 266.655 72.1022 265.6 73.8759C264.593 75.6017 263.419 77.2077 262.076 78.6938C260.734 80.132 259.2 81.2825 257.474 82.1455C255.749 83.0084 253.735 83.4398 251.434 83.4398ZM246.76 78.9095C247.287 78.9095 247.815 78.7418 248.342 78.4062C248.869 78.0706 249.301 77.5433 249.636 76.8242C250.355 75.2422 251.003 73.4205 251.578 71.3591C252.153 69.2977 252.656 67.2603 253.088 65.2468C253.519 63.1854 253.879 61.3637 254.167 59.7817C254.502 58.1518 254.742 56.9773 254.886 56.2582C254.166 57.1211 253.28 58.3435 252.225 59.9255C251.218 61.5075 250.235 63.0895 249.277 64.6715C248.366 66.2535 247.671 67.5239 247.191 68.4827C247.239 69.5853 246.808 70.5681 245.897 71.431C244.986 72.2939 244.195 73.1808 243.524 74.0916V74.8826C243.524 75.0744 243.524 75.3141 243.524 75.6017C243.572 75.8894 243.62 76.153 243.668 76.3927C243.907 77.1598 244.315 77.783 244.89 78.2624C245.513 78.6938 246.137 78.9095 246.76 78.9095Z" fill="white"/>
<path d="M270.394 83.3679C269.723 83.3679 269.075 83.296 268.452 83.1522C267.877 83.0563 267.182 82.8406 266.367 82.505C265.312 82.0735 264.545 81.3305 264.066 80.2758C263.586 79.1732 263.347 77.8788 263.347 76.3927C263.347 74.619 263.634 72.6535 264.21 70.4962C264.833 68.3389 265.624 66.1577 266.583 63.9525C267.685 61.5075 268.932 58.9428 270.322 56.2582C271.76 53.5736 273.318 51.1287 274.996 48.9235C276.722 46.7182 278.52 45.1362 280.389 44.1775C280.917 43.8898 281.516 43.6981 282.187 43.6022C282.858 43.4584 283.529 43.3865 284.2 43.3865C285.495 43.3865 286.717 43.5782 287.868 43.9617C288.299 44.1055 288.515 44.2973 288.515 44.537C288.515 44.6808 288.371 44.8726 288.083 45.1123C287.748 45.352 286.669 46.4785 284.848 48.492C283.074 50.4575 281.084 53.3818 278.879 57.2649C278.639 57.6964 278.304 58.2956 277.872 59.0626C277.489 59.7817 277.081 60.5248 276.65 61.2918C276.266 62.0588 275.931 62.73 275.643 63.3053C275.356 63.8326 275.212 64.0963 275.212 64.0963C276.458 62.2746 277.752 60.5488 279.095 58.9188C280.485 57.2889 281.731 55.8747 282.834 54.6762C283.937 53.4298 284.704 52.5908 285.135 52.1594C285.519 51.8717 286.142 51.7279 287.005 51.7279C288.012 51.7279 289.042 52.0395 290.097 52.6627C291.152 53.2859 291.679 54.4125 291.679 56.0425C291.679 57.0012 291.415 58.1518 290.888 59.4941C290.361 60.8364 289.761 62.1787 289.09 63.521C288.419 64.8154 287.868 65.9419 287.436 66.9007C287.34 67.1404 287.077 67.7157 286.645 68.6265C286.214 69.5374 285.758 70.5921 285.279 71.7905C284.8 72.989 284.368 74.1875 283.985 75.386C283.649 76.5365 283.481 77.4953 283.481 78.2624C283.481 79.2212 283.793 79.7005 284.416 79.7005C284.848 79.7005 285.375 79.4369 285.998 78.9095C286.621 78.3343 287.197 77.735 287.724 77.1118C288.299 76.4407 288.707 75.9373 288.946 75.6017C289.953 74.2115 290.864 72.7254 291.679 71.1434C292.542 69.5614 293.237 68.243 293.764 67.1884C293.956 66.8528 294.196 66.685 294.483 66.685C294.819 66.685 295.107 66.8288 295.346 67.1165C295.586 67.4041 295.61 67.7397 295.418 68.1232C294.651 69.6572 293.692 71.407 292.542 73.3725C291.439 75.2901 290.265 77.0399 289.018 78.6219C288.059 79.8204 286.957 80.899 285.71 81.8578C284.464 82.7687 283.146 83.2241 281.755 83.2241C279.742 83.2241 278.328 82.6009 277.513 81.3545C276.746 80.108 276.362 78.4781 276.362 76.4646C276.362 74.8826 276.578 73.3006 277.009 71.7186C277.489 70.1366 278.016 68.5546 278.591 66.9726C279.215 65.2468 279.814 63.6888 280.389 62.2985C281.012 60.9083 281.492 59.9735 281.827 59.4941C280.821 60.2132 279.67 61.3398 278.376 62.8738C277.129 64.3599 275.931 66.0858 274.78 68.0513C273.63 70.0168 272.671 72.0063 271.904 74.0197C271.137 76.0332 270.753 77.9028 270.753 79.6286C270.753 80.8271 271.017 81.738 271.544 82.3612C271.688 82.505 271.76 82.6488 271.76 82.7926C271.76 83.1761 271.305 83.3679 270.394 83.3679Z" fill="white"/>
<path d="M304.596 65.3187C303.829 65.3187 303.205 65.079 302.726 64.5996C302.247 64.0723 302.007 63.4012 302.007 62.5862C302.007 61.6274 302.271 60.7165 302.798 59.8536C303.325 58.9907 303.972 58.2956 304.739 57.7683C305.554 57.193 306.369 56.9054 307.184 56.9054C307.951 56.9054 308.551 57.169 308.982 57.6964C309.461 58.2237 309.701 58.8948 309.701 59.7098C309.701 60.6686 309.437 61.5795 308.91 62.4424C308.383 63.3053 307.736 64.0004 306.969 64.5277C306.202 65.0551 305.411 65.3187 304.596 65.3187ZM293.522 90.7026C293.09 90.7026 292.707 90.5348 292.371 90.1993C292.035 89.9116 292.035 89.6959 292.371 89.5521C293.761 88.9289 294.96 88.042 295.966 86.8915C297.021 85.7409 297.812 84.6143 298.339 83.5117C296.901 83.3679 296.182 82.4571 296.182 80.7792C296.182 79.8204 296.422 78.9095 296.901 78.0466C297.429 77.1837 298.076 76.4886 298.843 75.9613C299.658 75.386 300.473 75.0984 301.288 75.0984C302.055 75.0984 302.654 75.362 303.085 75.8894C303.565 76.3688 303.805 77.0159 303.805 77.8309C303.805 78.0227 303.781 78.2144 303.733 78.4062C303.733 78.55 303.709 78.7418 303.661 78.9815V79.0534C303.038 81.3065 301.911 83.4878 300.281 85.5971C298.699 87.7064 296.566 89.3843 293.881 90.6307C293.785 90.6787 293.665 90.7026 293.522 90.7026Z" fill="white"/>
</g>
<g opacity="0.5">
<path d="M83.9072 228.291H154.627V278.693H83.9072V228.291Z" fill="#FF4E4E"/>
<path fill-rule="evenodd" clip-rule="evenodd" d="M121.711 207.855C122.349 205.578 123.483 203.046 125.315 200.928C125.502 200.712 125.695 200.505 125.893 200.306C130.099 196.084 134.704 201.645 130.815 206.142C129.376 207.806 127.953 209.306 126.662 210.547C126.423 210.777 126.188 210.998 125.958 211.21C123.663 213.323 121.893 214.482 121.382 214.07C120.95 213.722 120.847 211.579 121.45 208.891C121.525 208.554 121.612 208.208 121.711 207.855ZM119.942 209.239C119.946 209.237 119.95 209.235 119.954 209.233C119.926 209.246 119.922 209.25 119.942 209.239ZM121.976 196.663C121.691 196.95 121.412 197.249 121.141 197.563C118.202 200.961 116.715 204.977 116.053 208.12C115.717 209.71 115.558 211.239 115.576 212.546C115.585 213.184 115.638 213.916 115.797 214.641C115.876 215.003 116.008 215.488 116.245 216.009C116.453 216.467 116.919 217.355 117.875 218.126C119.864 219.729 122.091 219.463 122.959 219.284C123.941 219.081 124.745 218.689 125.248 218.416C126.307 217.839 127.377 217.029 128.337 216.222C130.324 214.552 132.677 212.182 134.989 209.507C138.405 205.558 138.653 200.233 135.64 196.628C134.139 194.832 131.801 193.528 129.005 193.534C126.212 193.541 123.791 194.841 121.976 196.663Z" fill="white"/>
<path fill-rule="evenodd" clip-rule="evenodd" d="M114.182 207.855C113.544 205.578 112.409 203.046 110.577 200.928C110.39 200.712 110.197 200.505 110 200.306C105.794 196.084 101.188 201.645 105.078 206.142C106.516 207.806 107.939 209.306 109.23 210.547C109.47 210.777 109.705 210.998 109.935 211.21C112.229 213.323 113.999 214.482 114.51 214.07C114.943 213.722 115.046 211.579 114.443 208.891C114.367 208.554 114.28 208.208 114.182 207.855ZM115.95 209.239C115.947 209.237 115.943 209.235 115.938 209.233C115.966 209.246 115.971 209.25 115.95 209.239ZM113.917 196.663C114.202 196.95 114.481 197.249 114.752 197.563C117.691 200.961 119.177 204.977 119.84 208.12C120.175 209.71 120.334 211.239 120.316 212.546C120.307 213.184 120.255 213.916 120.096 214.641C120.017 215.002 119.884 215.488 119.648 216.009C119.44 216.467 118.974 217.355 118.018 218.126C116.029 219.729 113.802 219.463 112.933 219.284C111.952 219.081 111.147 218.689 110.645 218.416C109.585 217.839 108.516 217.029 107.555 216.222C105.568 214.552 103.216 212.182 100.903 209.507C97.4875 205.558 97.2396 200.233 100.253 196.628C101.754 194.832 104.092 193.528 106.888 193.534C109.68 193.541 112.101 194.841 113.917 196.663Z" fill="white"/>
<path d="M80 218.941C80 217.199 81.4117 215.787 83.153 215.787H140.534C142.276 215.787 143.687 217.199 143.687 218.941V225.137C143.687 226.879 142.276 228.291 140.534 228.291H83.1531C81.4117 228.291 80 226.879 80 225.137V218.941Z" fill="#CF1717"/>
<path d="M113.602 218.941C113.602 217.199 115.013 215.787 116.755 215.787H154.6C156.341 215.787 157.753 217.199 157.753 218.941V225.137C157.753 226.879 156.341 228.291 154.6 228.291H116.755C115.013 228.291 113.602 226.879 113.602 225.137V218.941Z" fill="#FF4E4E"/>
<path d="M83.9072 228.291H113.602V278.693H83.9072V228.291Z" fill="#EE2424"/>
<path d="M148.638 228.163L154.536 228.163L154.536 235.133L148.638 228.163Z" fill="#EE2424"/>
<path d="M119.854 228.291L113.602 228.291L113.602 235.324L119.854 228.291Z" fill="#EE2424"/>
<path d="M94.0659 228.291H103.052V278.693H94.0659V228.291Z" fill="white"/>
<path d="M130.403 228.291H139.389V278.693H130.403V228.291Z" fill="white"/>
</g>
<g filter="url(#filter0_f_94_776)">
<path d="M386.341 117.739C385.58 119.386 383.628 120.103 381.981 119.341C380.335 118.58 379.617 116.628 380.379 114.981C381.141 113.335 383.093 112.617 384.739 113.379C386.386 114.141 387.103 116.093 386.341 117.739Z" fill="url(#paint1_linear_94_776)"/>
</g>
<g filter="url(#filter1_f_94_776)">
<path d="M106.597 129.503C105.601 131.655 103.049 132.593 100.897 131.597C98.7448 130.601 97.8071 128.049 98.8027 125.897C99.7984 123.745 102.35 122.807 104.503 123.803C106.655 124.798 107.593 127.35 106.597 129.503Z" fill="url(#paint2_linear_94_776)"/>
</g>
<g filter="url(#filter2_f_94_776)">
<path d="M375.941 211.736C375.368 212.974 373.901 213.513 372.663 212.941C371.426 212.368 370.887 210.901 371.459 209.663C372.032 208.426 373.499 207.887 374.736 208.459C375.974 209.032 376.513 210.499 375.941 211.736Z" fill="url(#paint3_linear_94_776)"/>
</g>
<g filter="url(#filter3_f_94_776)">
<path d="M142.341 57.7393C141.58 59.3858 139.628 60.1031 137.981 59.3415C136.335 58.5799 135.617 56.6277 136.379 54.9812C137.141 53.3347 139.093 52.6174 140.739 53.379C142.386 54.1407 143.103 56.0928 142.341 57.7393Z" fill="url(#paint4_linear_94_776)"/>
</g>
<g filter="url(#filter4_f_94_776)">
<path d="M234.341 218.739C233.58 220.386 231.628 221.103 229.981 220.341C228.335 219.58 227.617 217.628 228.379 215.981C229.141 214.335 231.093 213.617 232.739 214.379C234.386 215.141 235.103 217.093 234.341 218.739Z" fill="url(#paint5_linear_94_776)"/>
</g>
<g filter="url(#filter5_f_94_776)">
<path d="M358.341 60.7393C357.58 62.3858 355.628 63.1031 353.981 62.3415C352.335 61.5799 351.617 59.6277 352.379 57.9812C353.141 56.3347 355.093 55.6174 356.739 56.379C358.386 57.1407 359.103 59.0928 358.341 60.7393Z" fill="url(#paint6_linear_94_776)"/>
</g>
<g filter="url(#filter6_d_94_776)">
<path d="M317.849 122V85.5625H304.599V77.4375H327.536V122H317.849Z" fill="white"/>
</g>
<g filter="url(#filter7_d_94_776)">
<path d="M252.199 122V113.875H286.574C288.157 113.875 289.345 113.438 290.136 112.563C290.928 111.646 291.324 110.396 291.324 108.813C291.324 107.188 290.928 105.917 290.136 105C289.345 104.083 288.157 103.625 286.574 103.625H258.074V95.5625H286.511C289.72 95.5625 291.324 93.875 291.324 90.5C291.324 87.1667 289.72 85.5 286.511 85.5H252.199V77.375H288.386C292.72 77.375 296.074 78.4583 298.449 80.625C300.866 82.75 302.074 85.7292 302.074 89.5625C302.074 91.6458 301.678 93.625 300.886 95.5C300.095 97.3333 298.782 98.6875 296.949 99.5625C298.782 100.479 300.095 101.833 300.886 103.625C301.678 105.375 302.074 107.313 302.074 109.438C302.074 113.229 300.866 116.271 298.449 118.563C296.074 120.854 292.72 122 288.386 122H252.199Z" fill="white"/>
</g>
<g filter="url(#filter8_d_94_776)">
<path d="M228.715 107.375V100.188H247.84V107.375H228.715Z" fill="white"/>
</g>
<g filter="url(#filter9_d_94_776)">
<path d="M171.447 122V77.3125H178.822L198.822 77.25C206.905 77.25 213.176 79.1458 217.635 82.9375C222.093 86.7292 224.322 92.2917 224.322 99.625C224.322 106.958 222.093 112.521 217.635 116.312C213.176 120.104 206.905 122 198.822 122H171.447ZM198.135 85.375H181.447V113.875H198.135C203.385 113.875 207.364 112.729 210.072 110.438C212.78 108.146 214.135 104.542 214.135 99.625C214.135 94.6667 212.78 91.0625 210.072 88.8125C207.364 86.5208 203.385 85.375 198.135 85.375Z" fill="white"/>
</g>
<path d="M367.523 137V143.094H370.477V145.273H367.523V152.281H364.875V137H367.523ZM361.758 138.617C361.758 144.242 358.102 148.25 351.82 150.078L350.742 148.016C355.582 146.621 358.465 143.984 358.922 140.75H351.633V138.617H361.758ZM368.32 155.656V157.766H353.906V150.711H356.555V155.656H368.32Z" fill="white"/>
<path d="M338.086 142.086C338.062 145.977 340.102 149.867 343.547 151.344L342 153.43C339.562 152.305 337.77 150.055 336.797 147.289C335.824 150.277 334.008 152.715 331.43 153.922L329.836 151.742C333.375 150.219 335.438 146.164 335.438 142.086V138.711H338.086V142.086ZM347.695 137V158.211H345.07V137H347.695Z" fill="white"/>
<path d="M322.945 147.945V150.031H303.633V147.945H322.945ZM320.766 155.656V157.766H306.023V151.602H308.625V155.656H320.766ZM313.266 137.68C317.883 137.68 320.883 139.297 320.906 141.969C320.883 144.664 317.883 146.305 313.266 146.305C308.648 146.305 305.625 144.664 305.625 141.969C305.625 139.297 308.648 137.68 313.266 137.68ZM313.266 139.766C310.195 139.766 308.32 140.562 308.344 141.969C308.32 143.398 310.195 144.195 313.266 144.172C316.359 144.195 318.211 143.398 318.211 141.969C318.211 140.562 316.359 139.766 313.266 139.766Z" fill="white"/>
<path d="M299.602 137.023V141.617H302.578V143.773H299.602V148.953H297V137.023H299.602ZM299.602 149.984V157.906H285.891V149.984H299.602ZM288.445 152.023V155.844H297.047V152.023H288.445ZM286.43 138.055V145.508C289.148 145.484 292.008 145.238 295.102 144.641L295.406 146.773C291.891 147.477 288.633 147.664 285.562 147.664H283.805V138.055H286.43Z" fill="white"/>
<path d="M264.445 143.023C264.445 146.492 266.484 150.148 269.906 151.578L268.477 153.641C265.969 152.562 264.141 150.336 263.18 147.641C262.195 150.547 260.344 152.984 257.859 154.156L256.359 152.117C259.711 150.57 261.797 146.633 261.797 143.023V141.242H257.133V139.086H269.086V141.242H264.445V143.023ZM274.078 137V158.188H271.453V137H274.078Z" fill="white"/>
<path d="M252.609 137V145.461H255.539V147.617H252.609V158.188H249.984V137H252.609ZM242.062 139.227C242.039 144.781 241.266 149.469 237.445 153.594L235.406 152.117C238.395 148.953 239.367 145.602 239.578 141.359H236.25V139.227H242.062ZM247.922 139.227C247.898 144.922 247.312 150.359 243.492 154.953L241.406 153.523C244.43 149.926 245.273 145.953 245.461 141.359H242.766V139.227H247.922Z" fill="white"/>
<path d="M225.914 139.906C225.914 143.188 229.125 146.469 233.555 147.242L232.383 149.422C228.832 148.672 225.926 146.527 224.555 143.68C223.148 146.504 220.242 148.66 216.703 149.422L215.555 147.242C219.938 146.445 223.125 143.164 223.148 139.906V138.336H225.914V139.906ZM234.328 153.336V155.492H214.969V153.336H234.328Z" fill="#F96EE3"/>
<path d="M205.008 139.062V152.938H194.977V139.062H205.008ZM197.531 141.102V150.852H202.406V141.102H197.531ZM210.82 137V145.133H214.078V147.336H210.82V158.188H208.219V137H210.82Z" fill="#F96EE3"/>
<path d="M184.43 139.906C184.43 143.188 187.641 146.469 192.07 147.242L190.898 149.422C187.348 148.672 184.441 146.527 183.07 143.68C181.664 146.504 178.758 148.66 175.219 149.422L174.07 147.242C178.453 146.445 181.641 143.164 181.664 139.906V138.336H184.43V139.906ZM192.844 153.336V155.492H173.484V153.336H192.844Z" fill="#F96EE3"/>
<path d="M170.391 137V158.211H167.812V137H170.391ZM163.875 138.852V146.797H156.586V151.062C159.926 151.039 162.809 150.875 166.102 150.312L166.336 152.445C162.727 153.078 159.562 153.195 155.766 153.195H153.914V144.734H161.227V140.961H153.891V138.852H163.875Z" fill="#F96EE3"/>
<path d="M149.18 138.969V141.5C149.18 144.57 149.18 147.5 148.242 151.977L145.641 151.742C146.074 149.891 146.32 148.262 146.461 146.75L133.969 147.406L133.617 145.297L146.578 144.805C146.625 143.668 146.625 142.578 146.625 141.5V141.078H134.25V138.969H149.18ZM151.312 153.359V155.492H132V153.359H151.312Z" fill="#F96EE3"/>
<path d="M307.02 172.597V173.563H295.096V172.597H298.055V169.081C296.941 168.502 296.268 167.565 296.268 166.386C296.268 164.364 298.245 163.046 301.028 163.031C303.812 163.046 305.789 164.364 305.789 166.386C305.789 167.543 305.137 168.473 304.061 169.052V172.597H307.02ZM301.028 163.983C298.89 163.969 297.381 164.936 297.381 166.386C297.381 167.836 298.89 168.817 301.028 168.817C303.152 168.817 304.676 167.836 304.676 166.386C304.676 164.936 303.152 163.969 301.028 163.983ZM299.183 172.597H302.903V169.491C302.339 169.645 301.709 169.726 301.028 169.726C300.362 169.726 299.739 169.652 299.183 169.506V172.597Z" fill="#D7D7D7"/>
<path d="M285.999 165.917C285.999 167.982 287.01 170.224 288.738 171.249L288.079 172.143C286.827 171.381 285.926 169.989 285.472 168.407C284.988 170.136 284.021 171.623 282.718 172.421L281.985 171.557C283.787 170.502 284.886 168.188 284.886 165.961V163.441H285.999V165.917ZM293.294 162.211V175.233H292.181V162.211H293.294ZM290.599 162.489V174.574H289.515V167.865H287.303V166.884H289.515V162.489H290.599Z" fill="#D7D7D7"/>
<path d="M281.092 172.611V173.563H269.168V172.611H274.529V169.799H270.574V163.134H271.731V165.492H278.499V163.134H279.627V169.799H275.657V172.611H281.092ZM271.731 168.861H278.499V166.43H271.731V168.861Z" fill="#D7D7D7"/>
<path d="M262.708 164.467V165.404H256.175V164.467H258.885V162.606H260.027V164.467H262.708ZM259.441 166.283C261.082 166.283 262.254 167.514 262.269 169.242C262.254 170.985 261.082 172.23 259.441 172.23C257.815 172.23 256.644 170.985 256.644 169.242C256.644 167.514 257.815 166.283 259.441 166.283ZM259.441 167.25C258.416 167.265 257.669 168.1 257.669 169.242C257.669 170.399 258.416 171.234 259.441 171.22C260.481 171.234 261.243 170.399 261.243 169.242C261.243 168.1 260.481 167.265 259.441 167.25ZM267.293 162.211V175.233H266.194V168.656H264.466V174.589H263.382V162.533H264.466V167.704H266.194V162.211H267.293Z" fill="#D7D7D7"/>
<path d="M249.627 162.973V163.91H244.969V167.338C247.518 167.353 249.056 167.257 250.843 166.898L250.989 167.821C249.129 168.217 247.532 168.29 244.852 168.275H243.841V162.973H249.627ZM253.421 162.211V164.979H255.384V165.932H253.421V168.788H252.278V162.211H253.421ZM253.421 169.433V172.641H246.272V174.12H253.904V175.058H245.145V171.732H252.278V170.37H245.115V169.433H253.421Z" fill="#D7D7D7"/>
<path d="M241.072 162.226V171.776H239.915V166.781H237.234V165.829H239.915V162.226H241.072ZM241.438 173.988V174.955H232.708V170.912H233.865V173.988H241.438ZM234.803 164.906C234.803 166.591 236.106 168.231 238.011 168.876L237.41 169.799C235.938 169.271 234.803 168.173 234.246 166.825C233.682 168.327 232.481 169.528 230.936 170.106L230.335 169.169C232.254 168.495 233.646 166.781 233.646 164.906V164.232H230.701V163.28H237.718V164.232H234.803V164.906Z" fill="#D7D7D7"/>
<path d="M224.695 162.211V175.233H223.597V162.211H224.695ZM221.956 162.562V174.574H220.857V168.495H218.104C217.305 170.011 216.053 171.352 214.236 172.421L213.562 171.586C216.397 169.909 217.818 167.558 218.03 164.833H214.119V163.881H219.173C219.166 165.163 218.96 166.4 218.528 167.558H220.857V162.562H221.956Z" fill="#D7D7D7"/>
<path d="M211.746 162.211V175.233H210.633V162.211H211.746ZM209.124 162.489V174.574H208.025V168.246H206.355C206.231 170.78 205.154 172.362 203.543 172.362C201.844 172.362 200.745 170.604 200.745 167.836C200.745 165.067 201.844 163.31 203.543 163.31C205.125 163.31 206.194 164.84 206.341 167.294H208.025V162.489H209.124ZM203.543 164.394C202.488 164.394 201.814 165.712 201.829 167.836C201.814 169.945 202.488 171.278 203.543 171.264C204.598 171.278 205.271 169.945 205.271 167.836C205.271 165.712 204.598 164.394 203.543 164.394Z" fill="#D7D7D7"/>
<path d="M197.801 162.226V165.565H199.778V166.547H197.801V169.989H196.658V162.226H197.801ZM197.801 170.634V175.058H189.554V170.634H197.801ZM190.682 171.527V174.12H196.688V171.527H190.682ZM194.08 162.929V166.488H189.334V168.334C191.648 168.334 193.326 168.268 195.354 167.938L195.472 168.861C193.377 169.228 191.634 169.301 189.217 169.301H188.206V165.595H192.952V163.881H188.177V162.929H194.08Z" fill="#D7D7D7"/>
<path d="M179.021 165.712C179.021 168.012 180.545 170.37 182.391 171.278L181.688 172.201C180.252 171.447 179.051 169.909 178.479 168.1C177.894 170.026 176.663 171.667 175.198 172.45L174.466 171.527C176.37 170.59 177.879 168.085 177.894 165.712V163.339H179.021V165.712ZM184.734 162.211V167.499H186.917V168.495H184.734V175.233H183.592V162.211H184.734Z" fill="#D7D7D7"/>
<path d="M168.108 162.226V166.518H170.071V167.484H168.108V171.981H166.966V162.226H168.108ZM165.721 163.822V164.76H157.957V163.822H161.268V162.226H162.41V163.822H165.721ZM161.839 165.478C163.699 165.478 164.959 166.43 164.974 167.909C164.959 169.374 163.699 170.312 161.839 170.312C159.964 170.312 158.689 169.374 158.704 167.909C158.689 166.43 159.964 165.478 161.839 165.478ZM161.839 166.386C160.608 166.386 159.788 166.986 159.803 167.909C159.788 168.832 160.608 169.418 161.839 169.403C163.055 169.418 163.875 168.832 163.89 167.909C163.875 166.986 163.055 166.386 161.839 166.386ZM168.709 173.988V174.955H159.964V171.205H161.092V173.988H168.709Z" fill="#D7D7D7"/>
<path d="M156.829 168.305V169.257H151.453V170.648C153.914 170.751 155.364 171.557 155.379 172.934C155.364 174.384 153.694 175.204 150.896 175.204C148.069 175.204 146.399 174.384 146.399 172.934C146.399 171.557 147.842 170.751 150.325 170.648V169.257H144.964V168.305H156.829ZM150.896 171.527C148.802 171.542 147.557 172.055 147.571 172.934C147.557 173.798 148.802 174.311 150.896 174.311C152.962 174.311 154.222 173.798 154.222 172.934C154.222 172.055 152.962 171.542 150.896 171.527ZM155.774 162.826V163.764H151.644C151.717 165.229 153.87 166.364 156.17 166.605L155.745 167.514C153.614 167.257 151.614 166.305 150.896 164.848C150.186 166.305 148.194 167.257 146.048 167.514L145.638 166.605C147.894 166.364 150.062 165.229 150.149 163.764H146.048V162.826H155.774Z" fill="#D7D7D7"/>
<path d="M143.924 172.582V173.534H132V172.582H137.332V169.389H138.46V172.582H143.924ZM138.489 164.101C138.489 166.283 141.067 168.188 143.338 168.583L142.825 169.535C140.84 169.132 138.746 167.785 137.903 165.902C137.046 167.777 134.966 169.132 132.981 169.535L132.469 168.583C134.739 168.188 137.288 166.283 137.288 164.101V163.104H138.489V164.101Z" fill="#D7D7D7"/>
<path d="M382.977 184.252L419.352 279.289H346.602L382.977 184.252Z" fill="#3B9356"/>
<path d="M383.235 163.768L408.675 230.223H357.794L383.235 163.768Z" fill="#34A45A"/>
<mask id="mask0_94_776" style="mask-type:alpha" maskUnits="userSpaceOnUse" x="357" y="163" width="52" height="68">
<path d="M383.235 163.768L408.675 230.223H357.794L383.235 163.768Z" fill="#34A45A"/>
</mask>
<g mask="url(#mask0_94_776)">
<path d="M391.264 187.606L366.373 187.606L366.373 194.209L391.264 187.606Z" fill="#2E5B37"/>
</g>
<mask id="mask1_94_776" style="mask-type:alpha" maskUnits="userSpaceOnUse" x="346" y="184" width="74" height="96">
<path d="M382.977 184.252L419.352 279.289H346.602L382.977 184.252Z" fill="#3B9356"/>
</mask>
<g mask="url(#mask1_94_776)">
<path d="M366.119 230.275L411.065 230.275L411.065 240.941L366.119 230.275Z" fill="#2E5B37"/>
</g>
<path d="M383.235 149L397.963 187.944H368.506L383.235 149Z" fill="#37B957"/>
<path d="M395.835 214.274C395.835 216.939 393.675 219.1 391.01 219.1C388.344 219.1 386.184 216.939 386.184 214.274C386.184 211.609 388.344 209.448 391.01 209.448C393.675 209.448 395.835 211.609 395.835 214.274Z" fill="#FF5656"/>
<path d="M395.835 214.274C395.835 216.939 393.675 219.1 391.01 219.1C388.344 219.1 386.184 216.939 386.184 214.274C386.184 211.609 388.344 209.448 391.01 209.448C393.675 209.448 395.835 211.609 395.835 214.274Z" fill="url(#paint7_linear_94_776)"/>
<path d="M385.168 257.96C385.168 260.625 383.007 262.785 380.342 262.785C377.677 262.785 375.517 260.625 375.517 257.96C375.517 255.294 377.677 253.134 380.342 253.134C383.007 253.134 385.168 255.294 385.168 257.96Z" fill="#DD56FF"/>
<path d="M385.168 257.96C385.168 260.625 383.007 262.785 380.342 262.785C377.677 262.785 375.517 260.625 375.517 257.96C375.517 255.294 377.677 253.134 380.342 253.134C383.007 253.134 385.168 255.294 385.168 257.96Z" fill="url(#paint8_linear_94_776)"/>
<path d="M374.873 205.131C374.873 207.515 372.94 209.448 370.555 209.448C368.171 209.448 366.238 207.515 366.238 205.131C366.238 202.746 368.171 200.813 370.555 200.813C372.94 200.813 374.873 202.746 374.873 205.131Z" fill="#8FFF68"/>
<path d="M374.873 205.131C374.873 207.515 372.94 209.448 370.555 209.448C368.171 209.448 366.238 207.515 366.238 205.131C366.238 202.746 368.171 200.813 370.555 200.813C372.94 200.813 374.873 202.746 374.873 205.131Z" fill="url(#paint9_linear_94_776)"/>
<mask id="mask2_94_776" style="mask-type:alpha" maskUnits="userSpaceOnUse" x="366" y="200" width="9" height="10">
<path d="M374.873 205.131C374.873 207.515 372.94 209.448 370.555 209.448C368.171 209.448 366.238 207.515 366.238 205.131C366.238 202.746 368.171 200.813 370.555 200.813C372.94 200.813 374.873 202.746 374.873 205.131Z" fill="#8FFF68"/>
<path d="M374.873 205.131C374.873 207.515 372.94 209.448 370.555 209.448C368.171 209.448 366.238 207.515 366.238 205.131C366.238 202.746 368.171 200.813 370.555 200.813C372.94 200.813 374.873 202.746 374.873 205.131Z" fill="url(#paint10_linear_94_776)"/>
</mask>
<g mask="url(#mask2_94_776)">
<path d="M373.857 203.607C373.857 206.272 371.696 208.433 369.031 208.433C366.366 208.433 364.206 206.272 364.206 203.607C364.206 200.942 366.366 198.781 369.031 198.781C371.696 198.781 373.857 200.942 373.857 203.607Z" fill="#8FFF68"/>
<path d="M373.857 203.607C373.857 206.272 371.696 208.433 369.031 208.433C366.366 208.433 364.206 206.272 364.206 203.607C364.206 200.942 366.366 198.781 369.031 198.781C371.696 198.781 373.857 200.942 373.857 203.607Z" fill="url(#paint11_linear_94_776)"/>
</g>
<path d="M409.042 248.308C409.042 250.693 407.109 252.626 404.725 252.626C402.34 252.626 400.407 250.693 400.407 248.308C400.407 245.924 402.34 243.99 404.725 243.99C407.109 243.99 409.042 245.924 409.042 248.308Z" fill="#FFDE68"/>
<path d="M409.042 248.308C409.042 250.693 407.109 252.626 404.725 252.626C402.34 252.626 400.407 250.693 400.407 248.308C400.407 245.924 402.34 243.99 404.725 243.99C407.109 243.99 409.042 245.924 409.042 248.308Z" fill="url(#paint12_linear_94_776)"/>
<mask id="mask3_94_776" style="mask-type:alpha" maskUnits="userSpaceOnUse" x="400" y="243" width="10" height="10">
<path d="M409.042 248.308C409.042 250.693 407.109 252.626 404.725 252.626C402.34 252.626 400.407 250.693 400.407 248.308C400.407 245.924 402.34 243.99 404.725 243.99C407.109 243.99 409.042 245.924 409.042 248.308Z" fill="#FFDE68"/>
<path d="M409.042 248.308C409.042 250.693 407.109 252.626 404.725 252.626C402.34 252.626 400.407 250.693 400.407 248.308C400.407 245.924 402.34 243.99 404.725 243.99C407.109 243.99 409.042 245.924 409.042 248.308Z" fill="url(#paint13_linear_94_776)"/>
</mask>
<g mask="url(#mask3_94_776)">
<path d="M408.026 246.784C408.026 249.449 405.866 251.61 403.201 251.61C400.536 251.61 398.375 249.449 398.375 246.784C398.375 244.119 400.536 241.958 403.201 241.958C405.866 241.958 408.026 244.119 408.026 246.784Z" fill="#FFDE68"/>
<path d="M408.026 246.784C408.026 249.449 405.866 251.61 403.201 251.61C400.536 251.61 398.375 249.449 398.375 246.784C398.375 244.119 400.536 241.958 403.201 241.958C405.866 241.958 408.026 244.119 408.026 246.784Z" fill="url(#paint14_linear_94_776)"/>
</g>
<path d="M393.264 171.081C393.264 173.176 391.565 174.875 389.47 174.875C387.375 174.875 385.676 173.176 385.676 171.081C385.676 168.986 387.375 167.287 389.47 167.287C391.565 167.287 393.264 168.986 393.264 171.081Z" fill="#68B6FF"/>
<path d="M393.264 171.081C393.264 173.176 391.565 174.875 389.47 174.875C387.375 174.875 385.676 173.176 385.676 171.081C385.676 168.986 387.375 167.287 389.47 167.287C391.565 167.287 393.264 168.986 393.264 171.081Z" fill="url(#paint15_linear_94_776)"/>
<path d="M291.769 246.222H361.03V274.02H291.769V246.222Z" fill="#9E70FE"/>
<path fill-rule="evenodd" clip-rule="evenodd" d="M328.989 226.415C329.617 224.194 330.731 221.724 332.532 219.659C332.716 219.448 332.905 219.246 333.1 219.052C337.233 214.934 341.759 220.358 337.937 224.744C336.523 226.367 335.125 227.83 333.856 229.04C333.62 229.264 333.389 229.48 333.164 229.687C330.908 231.748 329.169 232.879 328.667 232.477C328.241 232.137 328.14 230.047 328.733 227.426C328.807 227.096 328.892 226.759 328.989 226.415ZM327.251 227.765C327.255 227.763 327.259 227.761 327.263 227.758C327.236 227.772 327.231 227.776 327.251 227.765ZM329.25 215.499C328.97 215.778 328.696 216.071 328.429 216.376C325.541 219.691 324.08 223.608 323.429 226.673C323.099 228.224 322.943 229.716 322.96 230.99C322.969 231.612 323.021 232.326 323.177 233.034C323.255 233.386 323.385 233.859 323.617 234.368C323.822 234.814 324.28 235.681 325.219 236.433C327.174 237.996 329.363 237.737 330.216 237.562C331.181 237.364 331.972 236.982 332.466 236.715C333.507 236.153 334.558 235.363 335.502 234.576C337.455 232.947 339.767 230.635 342.04 228.026C345.397 224.175 345.64 218.981 342.679 215.464C341.203 213.713 338.906 212.441 336.158 212.447C333.413 212.453 331.034 213.722 329.25 215.499Z" fill="white"/>
<path fill-rule="evenodd" clip-rule="evenodd" d="M321.589 226.415C320.962 224.194 319.847 221.724 318.047 219.659C317.863 219.448 317.674 219.246 317.479 219.052C313.345 214.934 308.82 220.358 312.642 224.744C314.056 226.367 315.454 227.83 316.723 229.04C316.959 229.264 317.19 229.48 317.415 229.687C319.671 231.748 321.41 232.879 321.912 232.477C322.337 232.137 322.438 230.047 321.846 227.426C321.772 227.096 321.686 226.759 321.589 226.415ZM323.328 227.765C323.324 227.763 323.32 227.761 323.316 227.758C323.343 227.772 323.348 227.776 323.328 227.765ZM321.329 215.499C321.609 215.778 321.883 216.071 322.15 216.376C325.038 219.691 326.499 223.608 327.15 226.673C327.48 228.224 327.636 229.716 327.618 230.99C327.61 231.612 327.558 232.326 327.402 233.034C327.324 233.386 327.194 233.859 326.962 234.368C326.757 234.814 326.299 235.681 325.36 236.433C323.405 237.996 321.216 237.737 320.362 237.562C319.398 237.364 318.607 236.982 318.113 236.715C317.072 236.153 316.021 235.363 315.077 234.576C313.124 232.947 310.812 230.635 308.539 228.026C305.182 224.175 304.939 218.981 307.9 215.464C309.375 213.713 311.673 212.441 314.421 212.447C317.165 212.453 319.545 213.722 321.329 215.499Z" fill="white"/>
<path d="M288 237.21C288 235.544 289.351 234.193 291.017 234.193H347.693C349.36 234.193 350.71 235.544 350.71 237.21V243.204C350.71 244.871 349.36 246.221 347.693 246.221H291.017C289.351 246.221 288 244.871 288 243.204V237.21Z" fill="#844CF5"/>
<path d="M321.2 237.21C321.2 235.544 322.55 234.193 324.217 234.193H361.395C363.061 234.193 364.412 235.544 364.412 237.21V243.204C364.412 244.871 363.061 246.221 361.395 246.221H324.217C322.55 246.221 321.2 244.871 321.2 243.204V237.21Z" fill="#9E70FE"/>
<path d="M291.769 246.222H321.452V274.02H291.769V246.222Z" fill="#844CF5"/>
<path d="M355.376 246.222L361.03 246.222L361.03 252.818L355.376 246.222Z" fill="#844CF5"/>
<path d="M326.996 246.222L321.2 246.222L321.2 253.072L326.996 246.222Z" fill="#844CF5"/>
<path d="M301.664 246.222H310.616V274.02H301.664V246.222Z" fill="white"/>
<path d="M337.472 246.693H346.424V274.02H337.472V246.693Z" fill="white"/>
<g opacity="0.8">
<path d="M199.335 251.881H241.595V270.793H199.335V251.881Z" fill="#00CCF1"/>
<path fill-rule="evenodd" clip-rule="evenodd" d="M221.922 239.67C222.303 238.309 222.981 236.796 224.076 235.53C224.188 235.401 224.303 235.277 224.421 235.159C226.934 232.635 229.686 235.959 227.362 238.646C226.502 239.64 225.652 240.537 224.881 241.278C224.738 241.415 224.597 241.548 224.46 241.674C223.089 242.937 222.031 243.63 221.726 243.384C221.467 243.175 221.406 241.895 221.766 240.289C221.811 240.087 221.863 239.88 221.922 239.67ZM220.865 240.497C220.867 240.495 220.87 240.494 220.872 240.493C220.856 240.501 220.853 240.503 220.865 240.497ZM222.08 232.982C221.91 233.153 221.743 233.332 221.581 233.519C219.825 235.55 218.937 237.95 218.541 239.828C218.341 240.778 218.245 241.692 218.256 242.473C218.262 242.854 218.293 243.291 218.388 243.725C218.435 243.941 218.514 244.23 218.656 244.542C218.78 244.816 219.058 245.346 219.63 245.807C220.818 246.765 222.149 246.606 222.668 246.499C223.254 246.377 223.735 246.143 224.035 245.98C224.669 245.635 225.308 245.152 225.882 244.669C227.069 243.671 228.475 242.255 229.857 240.657C231.898 238.297 232.046 235.115 230.245 232.96C229.348 231.887 227.951 231.108 226.281 231.112C224.612 231.116 223.165 231.893 222.08 232.982Z" fill="white"/>
<path fill-rule="evenodd" clip-rule="evenodd" d="M217.423 239.67C217.042 238.309 216.364 236.796 215.269 235.53C215.157 235.401 215.042 235.277 214.924 235.159C212.411 232.635 209.659 235.959 211.983 238.646C212.843 239.64 213.693 240.537 214.464 241.278C214.607 241.415 214.748 241.548 214.885 241.674C216.256 242.937 217.314 243.63 217.619 243.384C217.878 243.175 217.939 241.895 217.579 240.289C217.534 240.087 217.482 239.88 217.423 239.67ZM218.48 240.497C218.478 240.495 218.475 240.494 218.473 240.493C218.489 240.501 218.492 240.503 218.48 240.497ZM217.265 232.982C217.435 233.153 217.602 233.332 217.764 233.519C219.52 235.55 220.408 237.95 220.804 239.828C221.004 240.778 221.1 241.692 221.089 242.473C221.083 242.854 221.052 243.291 220.957 243.725C220.91 243.941 220.831 244.23 220.689 244.542C220.565 244.816 220.287 245.346 219.715 245.807C218.527 246.765 217.196 246.606 216.677 246.499C216.091 246.377 215.61 246.143 215.309 245.98C214.676 245.635 214.037 245.152 213.463 244.669C212.276 243.671 210.87 242.255 209.488 240.657C207.447 238.297 207.299 235.115 209.1 232.96C209.997 231.887 211.394 231.108 213.064 231.112C214.733 231.116 216.18 231.893 217.265 232.982Z" fill="white"/>
<path d="M197 246.294C197 245.253 197.844 244.41 198.884 244.41H233.64C234.681 244.41 235.524 245.253 235.524 246.294V249.997C235.524 251.037 234.681 251.881 233.64 251.881H198.884C197.844 251.881 197 251.037 197 249.997V246.294Z" fill="#018BD4"/>
<path d="M217.079 246.294C217.079 245.253 217.923 244.41 218.963 244.41H241.578C242.619 244.41 243.462 245.253 243.462 246.294V249.997C243.462 251.037 242.619 251.881 241.578 251.881H218.963C217.923 251.881 217.079 251.037 217.079 249.997V246.294Z" fill="#00CCF1"/>
<path d="M199.335 251.881H217.079V272.661H199.335V251.881Z" fill="#01A9D2"/>
<path d="M237.625 251.881L241.595 251.881L241.595 256.084L237.625 251.881Z" fill="#01A9D2"/>
<path d="M220.815 251.881L217.079 251.881L217.079 256.084L220.815 251.881Z" fill="#01A9D2"/>
<path d="M205.405 251.881H210.775V273.361H205.405V251.881Z" fill="white"/>
<path d="M227.119 251.881H232.489V274.062H227.119V251.881Z" fill="white"/>
</g>
<path d="M153.154 246.24C153.154 253.099 158.908 258.659 166.005 258.659C173.102 258.659 178.856 253.099 178.856 246.24C178.856 239.381 173.102 233.82 166.005 233.82C158.908 233.82 153.154 239.381 153.154 246.24Z" fill="#FFDE68"/>
<path d="M153.154 246.24C153.154 253.099 158.908 258.659 166.005 258.659C173.102 258.659 178.856 253.099 178.856 246.24C178.856 239.381 173.102 233.82 166.005 233.82C158.908 233.82 153.154 239.381 153.154 246.24Z" fill="url(#paint16_linear_94_776)"/>
<path d="M138.356 250.121C138.356 256.98 143.935 262.54 150.817 262.54C157.7 262.54 163.279 256.98 163.279 250.121C163.279 243.262 157.7 237.701 150.817 237.701C143.935 237.701 138.356 243.262 138.356 250.121Z" fill="#68B6FF"/>
<path d="M138.356 250.121C138.356 256.98 143.935 262.54 150.817 262.54C157.7 262.54 163.279 256.98 163.279 250.121C163.279 243.262 157.7 237.701 150.817 237.701C143.935 237.701 138.356 243.262 138.356 250.121Z" fill="url(#paint17_linear_94_776)"/>
<path fill-rule="evenodd" clip-rule="evenodd" d="M176.452 259.299C179.58 249.52 182.193 244.129 188.059 234.625L186.788 233.844C180.869 243.433 178.201 248.935 175.03 258.848L176.452 259.299Z" fill="white"/>
<path d="M203 262.152C203 254.221 196.571 247.792 188.64 247.792H136.36C128.429 247.792 122 254.221 122 262.152V262.152C122 270.083 128.429 276.512 136.36 276.512H188.64C196.571 276.512 203 270.083 203 262.152V262.152Z" fill="#F6F214"/>
<mask id="mask4_94_776" style="mask-type:alpha" maskUnits="userSpaceOnUse" x="122" y="247" width="81" height="30">
<path d="M203 262.152C203 254.221 196.571 247.792 188.64 247.792H136.36C128.429 247.792 122 254.221 122 262.152V262.152C122 270.083 128.429 276.512 136.36 276.512H188.64C196.571 276.512 203 270.083 203 262.152V262.152Z" fill="#474694"/>
</mask>
<g mask="url(#mask4_94_776)">
<path d="M236.491 262.152C236.491 254.221 230.062 247.792 222.131 247.792H169.851C161.92 247.792 155.491 254.221 155.491 262.152V262.152C155.491 270.083 161.92 276.512 169.851 276.512H222.131C230.062 276.512 236.491 270.083 236.491 262.152V262.152Z" fill="#FDA71D"/>
</g>
<path d="M175.783 230.875C175.226 237.497 180.161 243.314 186.805 243.869C193.449 244.424 199.286 239.505 199.843 232.884C200.399 226.262 195.465 220.445 188.821 219.89C182.177 219.335 176.339 224.253 175.783 230.875Z" fill="#DD56FF"/>
<path d="M175.783 230.875C175.226 237.497 180.161 243.314 186.805 243.869C193.449 244.424 199.286 239.505 199.843 232.884C200.399 226.262 195.465 220.445 188.821 219.89C182.177 219.335 176.339 224.253 175.783 230.875Z" fill="url(#paint18_linear_94_776)"/>
<path fill-rule="evenodd" clip-rule="evenodd" d="M182.283 235.808C181.872 236.269 181.915 236.976 182.378 237.386C185.708 240.338 190.084 240.113 192.91 238.05C194.33 237.012 195.388 235.49 195.697 233.653C196.008 231.806 195.543 229.763 194.143 227.727C192.73 225.67 190.983 224.633 189.214 224.451C187.472 224.271 185.866 224.937 184.753 225.98C183.652 227.013 182.927 228.527 183.171 230.108C183.424 231.748 184.659 233.113 186.767 233.922C187.345 234.143 187.993 233.856 188.213 233.279C188.434 232.703 188.145 232.056 187.568 231.835C185.972 231.224 185.481 230.394 185.385 229.772C185.279 229.09 185.583 228.273 186.288 227.611C186.983 226.96 187.962 226.569 188.987 226.674C189.983 226.777 191.183 227.369 192.297 228.989C193.424 230.63 193.687 232.095 193.488 233.279C193.287 234.474 192.594 235.508 191.585 236.245C189.554 237.729 186.353 237.923 183.864 235.716C183.401 235.306 182.693 235.347 182.283 235.808Z" fill="white"/>
<path d="M60 270H438V286H60V270Z" fill="#FFEDFD"/>
<defs>
<filter id="filter0_f_94_776" x="379.026" y="112.026" width="8.66806" height="8.66806" filterUnits="userSpaceOnUse" color-interpolation-filters="sRGB">
<feFlood flood-opacity="0" result="BackgroundImageFix"/>
<feBlend mode="normal" in="SourceGraphic" in2="BackgroundImageFix" result="shape"/>
<feGaussianBlur stdDeviation="0.524253" result="effect1_foregroundBlur_94_776"/>
</filter>
<filter id="filter1_f_94_776" x="97.3565" y="122.356" width="10.6869" height="10.6869" filterUnits="userSpaceOnUse" color-interpolation-filters="sRGB">
<feFlood flood-opacity="0" result="BackgroundImageFix"/>
<feBlend mode="normal" in="SourceGraphic" in2="BackgroundImageFix" result="shape"/>
<feGaussianBlur stdDeviation="0.524253" result="effect1_foregroundBlur_94_776"/>
</filter>
<filter id="filter2_f_94_776" x="370.182" y="207.182" width="7.03598" height="7.03604" filterUnits="userSpaceOnUse" color-interpolation-filters="sRGB">
<feFlood flood-opacity="0" result="BackgroundImageFix"/>
<feBlend mode="normal" in="SourceGraphic" in2="BackgroundImageFix" result="shape"/>
<feGaussianBlur stdDeviation="0.524253" result="effect1_foregroundBlur_94_776"/>
</filter>
<filter id="filter3_f_94_776" x="126.075" y="43.0748" width="26.571" height="26.571" filterUnits="userSpaceOnUse" color-interpolation-filters="sRGB">
<feFlood flood-opacity="0" result="BackgroundImageFix"/>
<feBlend mode="normal" in="SourceGraphic" in2="BackgroundImageFix" result="shape"/>
<feGaussianBlur stdDeviation="5" result="effect1_foregroundBlur_94_776"/>
</filter>
<filter id="filter4_f_94_776" x="223.075" y="209.075" width="16.571" height="16.571" filterUnits="userSpaceOnUse" color-interpolation-filters="sRGB">
<feFlood flood-opacity="0" result="BackgroundImageFix"/>
<feBlend mode="normal" in="SourceGraphic" in2="BackgroundImageFix" result="shape"/>
<feGaussianBlur stdDeviation="2.5" result="effect1_foregroundBlur_94_776"/>
</filter>
<filter id="filter5_f_94_776" x="347.075" y="51.0748" width="16.571" height="16.571" filterUnits="userSpaceOnUse" color-interpolation-filters="sRGB">
<feFlood flood-opacity="0" result="BackgroundImageFix"/>
<feBlend mode="normal" in="SourceGraphic" in2="BackgroundImageFix" result="shape"/>
<feGaussianBlur stdDeviation="2.5" result="effect1_foregroundBlur_94_776"/>
</filter>
<filter id="filter6_d_94_776" x="297.599" y="75.4375" width="36.9375" height="58.5625" filterUnits="userSpaceOnUse" color-interpolation-filters="sRGB">
<feFlood flood-opacity="0" result="BackgroundImageFix"/>
<feColorMatrix in="SourceAlpha" type="matrix" values="0 0 0 0 0 0 0 0 0 0 0 0 0 0 0 0 0 0 127 0" result="hardAlpha"/>
<feOffset dy="5"/>
<feGaussianBlur stdDeviation="3.5"/>
<feComposite in2="hardAlpha" operator="out"/>
<feColorMatrix type="matrix" values="0 0 0 0 0.991623 0 0 0 0 0.986114 0 0 0 0 0.986114 0 0 0 0.25 0"/>
<feBlend mode="normal" in2="BackgroundImageFix" result="effect1_dropShadow_94_776"/>
<feBlend mode="normal" in="SourceGraphic" in2="effect1_dropShadow_94_776" result="shape"/>
</filter>
<filter id="filter7_d_94_776" x="245.199" y="75.375" width="63.875" height="58.625" filterUnits="userSpaceOnUse" color-interpolation-filters="sRGB">
<feFlood flood-opacity="0" result="BackgroundImageFix"/>
<feColorMatrix in="SourceAlpha" type="matrix" values="0 0 0 0 0 0 0 0 0 0 0 0 0 0 0 0 0 0 127 0" result="hardAlpha"/>
<feOffset dy="5"/>
<feGaussianBlur stdDeviation="3.5"/>
<feComposite in2="hardAlpha" operator="out"/>
<feColorMatrix type="matrix" values="0 0 0 0 0.991623 0 0 0 0 0.986114 0 0 0 0 0.986114 0 0 0 0.25 0"/>
<feBlend mode="normal" in2="BackgroundImageFix" result="effect1_dropShadow_94_776"/>
<feBlend mode="normal" in="SourceGraphic" in2="effect1_dropShadow_94_776" result="shape"/>
</filter>
<filter id="filter8_d_94_776" x="221.715" y="98.1875" width="33.125" height="21.1875" filterUnits="userSpaceOnUse" color-interpolation-filters="sRGB">
<feFlood flood-opacity="0" result="BackgroundImageFix"/>
<feColorMatrix in="SourceAlpha" type="matrix" values="0 0 0 0 0 0 0 0 0 0 0 0 0 0 0 0 0 0 127 0" result="hardAlpha"/>
<feOffset dy="5"/>
<feGaussianBlur stdDeviation="3.5"/>
<feComposite in2="hardAlpha" operator="out"/>
<feColorMatrix type="matrix" values="0 0 0 0 0.991623 0 0 0 0 0.986114 0 0 0 0 0.986114 0 0 0 0.25 0"/>
<feBlend mode="normal" in2="BackgroundImageFix" result="effect1_dropShadow_94_776"/>
<feBlend mode="normal" in="SourceGraphic" in2="effect1_dropShadow_94_776" result="shape"/>
</filter>
<filter id="filter9_d_94_776" x="164.447" y="75.25" width="66.875" height="58.75" filterUnits="userSpaceOnUse" color-interpolation-filters="sRGB">
<feFlood flood-opacity="0" result="BackgroundImageFix"/>
<feColorMatrix in="SourceAlpha" type="matrix" values="0 0 0 0 0 0 0 0 0 0 0 0 0 0 0 0 0 0 127 0" result="hardAlpha"/>
<feOffset dy="5"/>
<feGaussianBlur stdDeviation="3.5"/>
<feComposite in2="hardAlpha" operator="out"/>
<feColorMatrix type="matrix" values="0 0 0 0 0.991623 0 0 0 0 0.986114 0 0 0 0 0.986114 0 0 0 0.25 0"/>
<feBlend mode="normal" in2="BackgroundImageFix" result="effect1_dropShadow_94_776"/>
<feBlend mode="normal" in="SourceGraphic" in2="effect1_dropShadow_94_776" result="shape"/>
</filter>
<linearGradient id="paint0_linear_94_776" x1="249.5" y1="0" x2="249.5" y2="285" gradientUnits="userSpaceOnUse">
<stop/>
<stop offset="1" stop-color="#381438"/>
</linearGradient>
<linearGradient id="paint1_linear_94_776" x1="384.739" y1="113.379" x2="381.981" y2="119.341" gradientUnits="userSpaceOnUse">
<stop stop-color="#FFDFEC"/>
<stop offset="1" stop-color="#FAB3C5"/>
</linearGradient>
<linearGradient id="paint2_linear_94_776" x1="104.503" y1="123.803" x2="100.897" y2="131.597" gradientUnits="userSpaceOnUse">
<stop stop-color="#FFFCDF"/>
<stop offset="1" stop-color="#90394F"/>
</linearGradient>
<linearGradient id="paint3_linear_94_776" x1="374.736" y1="208.459" x2="372.663" y2="212.941" gradientUnits="userSpaceOnUse">
<stop stop-color="#FFFCDF"/>
<stop offset="1" stop-color="#90394F"/>
</linearGradient>
<linearGradient id="paint4_linear_94_776" x1="140.739" y1="53.379" x2="137.981" y2="59.3415" gradientUnits="userSpaceOnUse">
<stop stop-color="#FFDFEC"/>
<stop offset="1" stop-color="#FAB3C5"/>
</linearGradient>
<linearGradient id="paint5_linear_94_776" x1="232.739" y1="214.379" x2="229.981" y2="220.341" gradientUnits="userSpaceOnUse">
<stop stop-color="#FFDFEC"/>
<stop offset="1" stop-color="#FAB3C5"/>
</linearGradient>
<linearGradient id="paint6_linear_94_776" x1="356.739" y1="56.379" x2="353.981" y2="62.3415" gradientUnits="userSpaceOnUse">
<stop stop-color="#FFDFEC"/>
<stop offset="1" stop-color="#FAB3C5"/>
</linearGradient>
<linearGradient id="paint7_linear_94_776" x1="383.585" y1="202.396" x2="395.835" y2="223.183" gradientUnits="userSpaceOnUse">
<stop stop-color="white"/>
<stop offset="1" stop-color="white" stop-opacity="0"/>
</linearGradient>
<linearGradient id="paint8_linear_94_776" x1="372.918" y1="246.081" x2="385.168" y2="266.869" gradientUnits="userSpaceOnUse">
<stop stop-color="white"/>
<stop offset="1" stop-color="white" stop-opacity="0"/>
</linearGradient>
<linearGradient id="paint9_linear_94_776" x1="364.466" y1="196.052" x2="374.873" y2="211.773" gradientUnits="userSpaceOnUse">
<stop stop-color="white"/>
<stop offset="1" stop-color="white" stop-opacity="0"/>
</linearGradient>
<linearGradient id="paint10_linear_94_776" x1="364.466" y1="196.052" x2="374.873" y2="211.773" gradientUnits="userSpaceOnUse">
<stop stop-color="white"/>
<stop offset="1" stop-color="white" stop-opacity="0"/>
</linearGradient>
<linearGradient id="paint11_linear_94_776" x1="362.226" y1="193.46" x2="373.857" y2="211.031" gradientUnits="userSpaceOnUse">
<stop stop-color="white"/>
<stop offset="1" stop-color="white" stop-opacity="0"/>
</linearGradient>
<linearGradient id="paint12_linear_94_776" x1="398.636" y1="239.23" x2="409.042" y2="254.951" gradientUnits="userSpaceOnUse">
<stop stop-color="white"/>
<stop offset="1" stop-color="white" stop-opacity="0"/>
</linearGradient>
<linearGradient id="paint13_linear_94_776" x1="398.636" y1="239.23" x2="409.042" y2="254.951" gradientUnits="userSpaceOnUse">
<stop stop-color="white"/>
<stop offset="1" stop-color="white" stop-opacity="0"/>
</linearGradient>
<linearGradient id="paint14_linear_94_776" x1="396.395" y1="236.638" x2="408.026" y2="254.208" gradientUnits="userSpaceOnUse">
<stop stop-color="white"/>
<stop offset="1" stop-color="white" stop-opacity="0"/>
</linearGradient>
<linearGradient id="paint15_linear_94_776" x1="384.12" y1="163.104" x2="393.264" y2="176.918" gradientUnits="userSpaceOnUse">
<stop stop-color="white"/>
<stop offset="1" stop-color="white" stop-opacity="0"/>
</linearGradient>
<linearGradient id="paint16_linear_94_776" x1="184.128" y1="220.127" x2="154.605" y2="266.275" gradientUnits="userSpaceOnUse">
<stop stop-color="white"/>
<stop offset="1" stop-color="white" stop-opacity="0"/>
</linearGradient>
<linearGradient id="paint17_linear_94_776" x1="168.391" y1="224.008" x2="138.496" y2="269.321" gradientUnits="userSpaceOnUse">
<stop stop-color="white"/>
<stop offset="1" stop-color="white" stop-opacity="0"/>
</linearGradient>
<linearGradient id="paint18_linear_94_776" x1="208.801" y1="203.912" x2="174.079" y2="253.12" gradientUnits="userSpaceOnUse">
<stop stop-color="white"/>
<stop offset="1" stop-color="white" stop-opacity="0"/>
</linearGradient>
</defs>
</svg>
