<svg width="375" height="615" viewBox="0 0 375 615" fill="none" xmlns="http://www.w3.org/2000/svg">
<rect y="58" width="375" height="285" fill="url(#paint0_linear_52_1082)"/>
<g opacity="0.2">
<path d="M141.159 141.943C138.762 141.943 136.941 141.296 135.694 140.002C134.448 138.659 133.825 136.814 133.825 134.465C133.825 131.636 134.232 128.808 135.047 125.979C135.91 123.151 136.941 120.418 138.139 117.782C139.386 115.097 140.608 112.604 141.807 110.303C143.053 107.954 144.06 105.893 144.827 104.119C145.258 103.112 145.474 102.225 145.474 101.458C145.474 100.452 145.066 99.9483 144.251 99.9483C143.676 99.9483 142.837 100.356 141.735 101.171C140.632 101.938 139.577 103.04 138.571 104.479C136.413 107.499 134.759 110.327 133.609 112.964C132.458 115.6 131.883 117.806 131.883 119.579C131.883 120.394 132.027 121.09 132.315 121.665C132.41 121.809 132.458 122.024 132.458 122.312C132.458 122.696 132.243 122.887 131.811 122.887C131.38 122.887 130.852 122.648 130.229 122.168C129.462 121.545 128.887 120.778 128.503 119.867C128.168 118.956 128 117.926 128 116.775C128 115.193 128.288 113.515 128.863 111.741C129.486 109.968 130.301 108.242 131.308 106.564C132.315 104.838 133.465 103.328 134.759 102.034C136.294 100.5 137.971 99.2771 139.793 98.3663C141.663 97.4554 143.197 97 144.395 97C147.368 97 149.645 97.5992 151.227 98.7977C152.857 99.9962 153.672 101.458 153.672 103.184C153.672 103.759 153.552 104.407 153.312 105.126C152.593 107.235 151.61 109.656 150.364 112.389C149.165 115.073 147.919 117.854 146.624 120.73C145.378 123.606 144.299 126.387 143.389 129.071C142.526 131.756 142.094 134.129 142.094 136.19C142.094 136.957 142.19 137.581 142.382 138.06C142.622 138.492 142.981 138.707 143.46 138.707C144.467 138.707 145.618 137.892 146.912 136.262C148.206 134.584 149.597 132.355 151.083 129.575C152.569 126.794 154.103 123.726 155.685 120.37C156.931 116.871 158.106 113.851 159.209 111.31C160.359 108.721 161.246 106.947 161.869 105.989C162.732 104.742 163.475 103.927 164.098 103.544C164.722 103.112 165.417 102.897 166.184 102.897C166.999 102.849 168.029 102.825 169.276 102.825C170.57 102.729 171.601 102.801 172.368 103.04C173.135 103.232 173.399 103.472 173.159 103.759C171.481 105.965 169.875 108.553 168.341 111.526C166.855 114.498 165.513 117.542 164.314 120.658C163.164 123.774 162.253 126.674 161.582 129.359C160.91 132.044 160.575 134.225 160.575 135.903C160.575 137.916 161.054 138.923 162.013 138.923C163.164 138.923 164.41 138.228 165.752 136.838C167.095 135.399 168.437 133.554 169.779 131.301C171.169 129 172.488 126.555 173.734 123.966C174.166 123.055 174.741 121.641 175.46 119.723C176.179 117.806 176.922 115.696 177.689 113.395C178.456 111.094 179.079 108.865 179.559 106.708C180.086 104.55 180.35 102.777 180.35 101.386C180.35 99.7565 179.942 98.9415 179.127 98.9415C178.744 98.9415 178.552 98.7977 178.552 98.5101C178.552 98.3663 178.648 98.1985 178.84 98.0067C179.031 97.815 179.295 97.6951 179.631 97.6472C180.446 97.4554 181.285 97.3595 182.148 97.3595C184.401 97.3595 185.959 98.0307 186.822 99.373C187.685 100.715 188.116 102.345 188.116 104.263C188.116 105.845 187.9 107.523 187.469 109.296C187.037 111.022 186.534 112.628 185.959 114.114C185.048 116.463 183.945 118.908 182.651 121.449C181.357 123.99 179.894 126.483 178.264 128.928C176.635 131.325 174.885 133.506 173.015 135.471C171.193 137.437 169.3 138.995 167.334 140.145C165.417 141.296 163.475 141.871 161.51 141.871C158.777 141.871 156.668 141.08 155.182 139.498C153.696 137.868 152.928 135.591 152.881 132.667C151.251 135.304 149.453 137.509 147.487 139.283C145.57 141.056 143.46 141.943 141.159 141.943Z" fill="white"/>
<path d="M189.434 141.44C186.51 141.44 184.089 140.577 182.171 138.851C180.254 137.125 179.295 134.728 179.295 131.66C179.295 130.606 179.415 129.503 179.654 128.352C179.894 127.202 180.278 126.219 180.805 125.404C181.332 124.589 182.027 124.182 182.89 124.182C183.418 124.182 183.801 124.349 184.041 124.685C184.616 123.582 185.239 122.48 185.91 121.377C186.582 120.275 187.253 119.148 187.924 117.997C188.691 116.751 189.578 115.385 190.585 113.899C191.639 112.365 192.838 111.022 194.18 109.872C195.522 108.673 196.984 108.002 198.566 107.858C198.758 107.81 198.95 107.786 199.142 107.786C199.381 107.786 199.597 107.786 199.789 107.786C200.316 107.786 200.868 107.81 201.443 107.858C202.018 107.906 202.45 107.954 202.737 108.002C202.833 108.05 202.905 108.194 202.953 108.434C203.001 108.673 202.881 108.793 202.593 108.793C202.402 108.793 202.018 108.937 201.443 109.225C200.868 109.464 200.532 110.063 200.436 111.022C200.34 114.378 200.124 117.734 199.789 121.09C199.501 124.445 199.046 127.25 198.423 129.503C198.135 130.653 197.68 131.9 197.056 133.242C196.433 134.584 195.69 135.783 194.827 136.838C193.964 137.892 193.053 138.611 192.095 138.995C193.053 138.995 194.06 138.707 195.115 138.132C196.217 137.509 197.224 136.766 198.135 135.903C199.094 135.04 199.813 134.273 200.292 133.602C201.347 132.116 202.306 130.558 203.169 128.928C204.079 127.25 204.751 125.955 205.182 125.045C205.326 124.805 205.494 124.685 205.685 124.685C205.925 124.685 206.141 124.829 206.333 125.116C206.524 125.404 206.62 125.716 206.62 126.051C206.62 126.147 206.596 126.243 206.548 126.339C206.548 126.435 206.524 126.531 206.476 126.627C205.614 128.352 204.655 130.102 203.6 131.876C202.593 133.602 201.419 135.208 200.076 136.694C198.734 138.132 197.2 139.283 195.474 140.145C193.749 141.008 191.735 141.44 189.434 141.44ZM184.76 136.91C185.287 136.91 185.815 136.742 186.342 136.406C186.869 136.071 187.301 135.543 187.636 134.824C188.355 133.242 189.003 131.42 189.578 129.359C190.153 127.298 190.656 125.26 191.088 123.247C191.519 121.185 191.879 119.364 192.167 117.782C192.502 116.152 192.742 114.977 192.886 114.258C192.166 115.121 191.28 116.344 190.225 117.926C189.218 119.508 188.235 121.09 187.277 122.672C186.366 124.254 185.671 125.524 185.191 126.483C185.239 127.585 184.808 128.568 183.897 129.431C182.986 130.294 182.195 131.181 181.524 132.092V132.883C181.524 133.074 181.524 133.314 181.524 133.602C181.572 133.889 181.62 134.153 181.668 134.393C181.907 135.16 182.315 135.783 182.89 136.262C183.513 136.694 184.137 136.91 184.76 136.91Z" fill="white"/>
<path d="M208.394 141.368C207.723 141.368 207.075 141.296 206.452 141.152C205.877 141.056 205.182 140.841 204.367 140.505C203.312 140.074 202.545 139.33 202.066 138.276C201.586 137.173 201.347 135.879 201.347 134.393C201.347 132.619 201.634 130.653 202.21 128.496C202.833 126.339 203.624 124.158 204.583 121.952C205.685 119.508 206.932 116.943 208.322 114.258C209.76 111.574 211.318 109.129 212.996 106.923C214.722 104.718 216.52 103.136 218.389 102.177C218.916 101.89 219.516 101.698 220.187 101.602C220.858 101.458 221.529 101.386 222.2 101.386C223.495 101.386 224.717 101.578 225.868 101.962C226.299 102.106 226.515 102.297 226.515 102.537C226.515 102.681 226.371 102.873 226.083 103.112C225.748 103.352 224.669 104.479 222.848 106.492C221.074 108.458 219.084 111.382 216.879 115.265C216.639 115.696 216.304 116.296 215.872 117.063C215.489 117.782 215.081 118.525 214.65 119.292C214.266 120.059 213.931 120.73 213.643 121.305C213.356 121.833 213.212 122.096 213.212 122.096C214.458 120.275 215.753 118.549 217.095 116.919C218.485 115.289 219.731 113.875 220.834 112.676C221.937 111.43 222.704 110.591 223.135 110.159C223.519 109.872 224.142 109.728 225.005 109.728C226.012 109.728 227.042 110.04 228.097 110.663C229.152 111.286 229.679 112.413 229.679 114.042C229.679 115.001 229.415 116.152 228.888 117.494C228.361 118.836 227.761 120.179 227.09 121.521C226.419 122.815 225.868 123.942 225.436 124.901C225.34 125.14 225.077 125.716 224.645 126.627C224.214 127.537 223.758 128.592 223.279 129.791C222.8 130.989 222.368 132.188 221.985 133.386C221.649 134.537 221.481 135.495 221.481 136.262C221.481 137.221 221.793 137.701 222.416 137.701C222.848 137.701 223.375 137.437 223.998 136.91C224.621 136.334 225.197 135.735 225.724 135.112C226.299 134.441 226.707 133.937 226.946 133.602C227.953 132.211 228.864 130.725 229.679 129.143C230.542 127.561 231.237 126.243 231.764 125.188C231.956 124.853 232.196 124.685 232.483 124.685C232.819 124.685 233.107 124.829 233.346 125.116C233.586 125.404 233.61 125.74 233.418 126.123C232.651 127.657 231.692 129.407 230.542 131.373C229.439 133.29 228.265 135.04 227.018 136.622C226.059 137.82 224.957 138.899 223.71 139.858C222.464 140.769 221.146 141.224 219.755 141.224C217.742 141.224 216.328 140.601 215.513 139.354C214.746 138.108 214.362 136.478 214.362 134.465C214.362 132.883 214.578 131.301 215.009 129.719C215.489 128.137 216.016 126.555 216.591 124.973C217.215 123.247 217.814 121.689 218.389 120.299C219.012 118.908 219.492 117.973 219.827 117.494C218.821 118.213 217.67 119.34 216.376 120.874C215.129 122.36 213.931 124.086 212.78 126.051C211.63 128.017 210.671 130.006 209.904 132.02C209.137 134.033 208.753 135.903 208.753 137.629C208.753 138.827 209.017 139.738 209.544 140.361C209.688 140.505 209.76 140.649 209.76 140.793C209.76 141.176 209.305 141.368 208.394 141.368Z" fill="white"/>
<path d="M242.596 123.319C241.829 123.319 241.205 123.079 240.726 122.6C240.247 122.072 240.007 121.401 240.007 120.586C240.007 119.627 240.271 118.717 240.798 117.854C241.325 116.991 241.972 116.296 242.739 115.768C243.554 115.193 244.369 114.905 245.184 114.905C245.951 114.905 246.551 115.169 246.982 115.696C247.461 116.224 247.701 116.895 247.701 117.71C247.701 118.669 247.437 119.579 246.91 120.442C246.383 121.305 245.736 122 244.969 122.528C244.202 123.055 243.411 123.319 242.596 123.319ZM231.522 148.703C231.09 148.703 230.707 148.535 230.371 148.199C230.035 147.912 230.035 147.696 230.371 147.552C231.761 146.929 232.96 146.042 233.966 144.891C235.021 143.741 235.812 142.614 236.339 141.512C234.901 141.368 234.182 140.457 234.182 138.779C234.182 137.82 234.422 136.91 234.901 136.047C235.429 135.184 236.076 134.489 236.843 133.961C237.658 133.386 238.473 133.098 239.288 133.098C240.055 133.098 240.654 133.362 241.085 133.889C241.565 134.369 241.805 135.016 241.805 135.831C241.805 136.023 241.781 136.214 241.733 136.406C241.733 136.55 241.709 136.742 241.661 136.981V137.053C241.038 139.307 239.911 141.488 238.281 143.597C236.699 145.706 234.566 147.384 231.881 148.631C231.785 148.679 231.665 148.703 231.522 148.703Z" fill="white"/>
</g>
<g opacity="0.3" filter="url(#filter0_f_52_1082)">
<circle cx="190" cy="313" r="68" fill="#FFFEFD"/>
</g>
<g opacity="0.5">
<rect x="21.9072" y="286.291" width="70.7203" height="50.4028" fill="#FF4E4E"/>
<path fill-rule="evenodd" clip-rule="evenodd" d="M59.7108 265.855C60.3489 263.578 61.4833 261.046 63.3152 258.928C63.5023 258.712 63.6951 258.505 63.8928 258.306C68.099 254.084 72.7041 259.645 68.8147 264.142C67.3761 265.806 65.9534 267.306 64.6623 268.547C64.4227 268.777 64.1877 268.998 63.9579 269.21C61.6632 271.323 59.8933 272.482 59.3822 272.07C58.9497 271.722 58.8469 269.579 59.4495 266.891C59.5252 266.554 59.6121 266.208 59.7108 265.855ZM57.9421 267.239C57.9457 267.237 57.9497 267.235 57.954 267.233C57.9264 267.246 57.9218 267.25 57.9421 267.239ZM59.976 254.663C59.6909 254.95 59.4119 255.249 59.1406 255.563C56.2015 258.961 54.7151 262.977 54.0526 266.12C53.7173 267.71 53.5582 269.239 53.5763 270.546C53.5852 271.184 53.6377 271.916 53.7967 272.641C53.8758 273.002 54.0081 273.488 54.2447 274.009C54.4525 274.467 54.9185 275.355 55.8746 276.126C57.8638 277.729 60.091 277.463 60.9593 277.284C61.9406 277.081 62.7452 276.689 63.2477 276.416C64.3074 275.839 65.3767 275.029 66.3372 274.222C68.3244 272.552 70.6765 270.182 72.9894 267.507C76.4051 263.558 76.653 258.233 73.6395 254.628C72.1385 252.832 69.8009 251.528 67.0047 251.534C64.2122 251.541 61.7912 252.841 59.976 254.663Z" fill="white"/>
<path fill-rule="evenodd" clip-rule="evenodd" d="M52.1818 265.855C51.5437 263.578 50.4093 261.046 48.5774 258.928C48.3904 258.712 48.1976 258.505 47.9998 258.306C43.7936 254.084 39.1885 259.645 43.0779 264.142C44.5165 265.806 45.9392 267.306 47.2303 268.547C47.4699 268.777 47.7049 268.998 47.9347 269.21C50.2294 271.323 51.9993 272.482 52.5104 272.07C52.9429 271.722 53.0457 269.579 52.4431 266.891C52.3674 266.554 52.2805 266.208 52.1818 265.855ZM53.9505 267.239C53.9469 267.237 53.9429 267.235 53.9386 267.233C53.9662 267.246 53.9708 267.25 53.9505 267.239ZM51.9166 254.663C52.2017 254.95 52.4807 255.249 52.752 255.563C55.6911 258.961 57.1775 262.977 57.84 266.12C58.1753 267.71 58.3344 269.239 58.3163 270.546C58.3074 271.184 58.2549 271.916 58.0959 272.641C58.0168 273.002 57.8845 273.488 57.6479 274.009C57.4401 274.467 56.9741 275.355 56.018 276.126C54.0288 277.729 51.8016 277.463 50.9333 277.284C49.952 277.081 49.1474 276.689 48.6449 276.416C47.5852 275.839 46.5159 275.029 45.5554 274.222C43.5682 272.552 41.2161 270.182 38.9032 267.507C35.4876 263.558 35.2397 258.233 38.2531 254.628C39.7541 252.832 42.0917 251.528 44.8879 251.534C47.6804 251.541 50.1014 252.841 51.9166 254.663Z" fill="white"/>
<rect x="18" y="273.787" width="63.6873" height="12.503" rx="3.15305" fill="#CF1717"/>
<rect x="51.6018" y="273.787" width="44.1513" height="12.503" rx="3.15305" fill="#FF4E4E"/>
<rect x="21.9072" y="286.291" width="29.6947" height="50.4028" fill="#EE2424"/>
<path d="M86.6376 286.163L92.5358 286.163L92.5358 293.133L86.6376 286.163Z" fill="#EE2424"/>
<path d="M57.8535 286.291L51.6019 286.291L51.6019 293.324L57.8535 286.291Z" fill="#EE2424"/>
<rect x="32.0659" y="286.291" width="8.98656" height="50.4028" fill="white"/>
<rect x="68.4028" y="286.291" width="8.98656" height="50.4028" fill="white"/>
</g>
<g filter="url(#filter1_f_52_1082)">
<circle cx="321.36" cy="174.36" r="3.28473" transform="rotate(24.8242 321.36 174.36)" fill="url(#paint1_linear_52_1082)"/>
</g>
<g filter="url(#filter2_f_52_1082)">
<circle cx="40.6999" cy="185.7" r="4.29389" transform="rotate(24.8242 40.6999 185.7)" fill="url(#paint2_linear_52_1082)"/>
</g>
<g filter="url(#filter3_f_52_1082)">
<circle cx="311.7" cy="268.7" r="2.4689" transform="rotate(24.8242 311.7 268.7)" fill="url(#paint3_linear_52_1082)"/>
</g>
<g filter="url(#filter4_f_52_1082)">
<circle cx="77.3603" cy="114.36" r="3.28473" transform="rotate(24.8242 77.3603 114.36)" fill="url(#paint4_linear_52_1082)"/>
</g>
<g filter="url(#filter5_f_52_1082)">
<circle cx="169.36" cy="275.36" r="3.28473" transform="rotate(24.8242 169.36 275.36)" fill="url(#paint5_linear_52_1082)"/>
</g>
<g filter="url(#filter6_f_52_1082)">
<circle cx="293.36" cy="117.36" r="3.28473" transform="rotate(24.8242 293.36 117.36)" fill="url(#paint6_linear_52_1082)"/>
</g>
<g filter="url(#filter7_f_52_1082)">
<ellipse cy="190.5" rx="62" ry="61.5" fill="#F7A3EE" fill-opacity="0.5"/>
</g>
<path d="M320.977 242.252L357.352 337.289H284.602L320.977 242.252Z" fill="#3B9356"/>
<path d="M321.235 221.768L346.675 288.223H295.794L321.235 221.768Z" fill="#34A45A"/>
<mask id="mask0_52_1082" style="mask-type:alpha" maskUnits="userSpaceOnUse" x="295" y="221" width="52" height="68">
<path d="M321.235 221.768L346.675 288.223H295.794L321.235 221.768Z" fill="#34A45A"/>
</mask>
<g mask="url(#mask0_52_1082)">
<path d="M329.264 245.606L304.373 245.606L304.373 252.209L329.264 245.606Z" fill="#2E5B37"/>
</g>
<mask id="mask1_52_1082" style="mask-type:alpha" maskUnits="userSpaceOnUse" x="284" y="242" width="74" height="96">
<path d="M320.977 242.252L357.352 337.289H284.602L320.977 242.252Z" fill="#3B9356"/>
</mask>
<g mask="url(#mask1_52_1082)">
<path d="M304.119 288.275L349.065 288.275L349.065 298.941L304.119 288.275Z" fill="#2E5B37"/>
</g>
<path d="M321.235 207L335.963 245.944H306.506L321.235 207Z" fill="#37B957"/>
<circle cx="329.01" cy="272.274" r="4.82572" fill="#FF5656"/>
<circle cx="329.01" cy="272.274" r="4.82572" fill="url(#paint7_linear_52_1082)"/>
<circle cx="318.342" cy="315.96" r="4.82572" fill="#DD56FF"/>
<circle cx="318.342" cy="315.96" r="4.82572" fill="url(#paint8_linear_52_1082)"/>
<circle cx="308.555" cy="263.131" r="4.31775" fill="#8FFF68"/>
<circle cx="308.555" cy="263.131" r="4.31775" fill="url(#paint9_linear_52_1082)"/>
<mask id="mask2_52_1082" style="mask-type:alpha" maskUnits="userSpaceOnUse" x="304" y="258" width="9" height="10">
<path d="M312.873 263.131C312.873 265.515 310.94 267.448 308.555 267.448C306.171 267.448 304.237 265.515 304.237 263.131C304.237 260.746 306.171 258.813 308.555 258.813C310.94 258.813 312.873 260.746 312.873 263.131Z" fill="#8FFF68"/>
<path d="M312.873 263.131C312.873 265.515 310.94 267.448 308.555 267.448C306.171 267.448 304.237 265.515 304.237 263.131C304.237 260.746 306.171 258.813 308.555 258.813C310.94 258.813 312.873 260.746 312.873 263.131Z" fill="url(#paint10_linear_52_1082)"/>
</mask>
<g mask="url(#mask2_52_1082)">
<path d="M311.857 261.607C311.857 264.272 309.696 266.433 307.031 266.433C304.366 266.433 302.206 264.272 302.206 261.607C302.206 258.942 304.366 256.781 307.031 256.781C309.696 256.781 311.857 258.942 311.857 261.607Z" fill="#8FFF68"/>
<path d="M311.857 261.607C311.857 264.272 309.696 266.433 307.031 266.433C304.366 266.433 302.206 264.272 302.206 261.607C302.206 258.942 304.366 256.781 307.031 256.781C309.696 256.781 311.857 258.942 311.857 261.607Z" fill="url(#paint11_linear_52_1082)"/>
</g>
<circle cx="342.725" cy="306.308" r="4.31775" fill="#FFDE68"/>
<circle cx="342.725" cy="306.308" r="4.31775" fill="url(#paint12_linear_52_1082)"/>
<mask id="mask3_52_1082" style="mask-type:alpha" maskUnits="userSpaceOnUse" x="338" y="301" width="10" height="10">
<path d="M347.043 306.308C347.043 308.693 345.109 310.626 342.725 310.626C340.34 310.626 338.407 308.693 338.407 306.308C338.407 303.924 340.34 301.99 342.725 301.99C345.109 301.99 347.043 303.924 347.043 306.308Z" fill="#FFDE68"/>
<path d="M347.043 306.308C347.043 308.693 345.109 310.626 342.725 310.626C340.34 310.626 338.407 308.693 338.407 306.308C338.407 303.924 340.34 301.99 342.725 301.99C345.109 301.99 347.043 303.924 347.043 306.308Z" fill="url(#paint13_linear_52_1082)"/>
</mask>
<g mask="url(#mask3_52_1082)">
<path d="M346.026 304.784C346.026 307.449 343.866 309.61 341.201 309.61C338.536 309.61 336.375 307.449 336.375 304.784C336.375 302.119 338.536 299.958 341.201 299.958C343.866 299.958 346.026 302.119 346.026 304.784Z" fill="#FFDE68"/>
<path d="M346.026 304.784C346.026 307.449 343.866 309.61 341.201 309.61C338.536 309.61 336.375 307.449 336.375 304.784C336.375 302.119 338.536 299.958 341.201 299.958C343.866 299.958 346.026 302.119 346.026 304.784Z" fill="url(#paint14_linear_52_1082)"/>
</g>
<circle cx="327.47" cy="229.081" r="3.7939" fill="#68B6FF"/>
<circle cx="327.47" cy="229.081" r="3.7939" fill="url(#paint15_linear_52_1082)"/>
<rect x="229.769" y="304.222" width="69.2604" height="27.7984" fill="#9E70FE"/>
<path fill-rule="evenodd" clip-rule="evenodd" d="M266.989 284.415C267.616 282.194 268.731 279.724 270.532 277.659C270.716 277.448 270.905 277.246 271.099 277.052C275.233 272.934 279.759 278.358 275.937 282.744C274.523 284.367 273.125 285.83 271.856 287.04C271.62 287.264 271.389 287.48 271.163 287.687C268.908 289.748 267.169 290.879 266.666 290.477C266.241 290.137 266.14 288.047 266.732 285.426C266.807 285.096 266.892 284.759 266.989 284.415ZM265.251 285.765C265.255 285.763 265.258 285.761 265.263 285.758C265.236 285.772 265.231 285.776 265.251 285.765ZM267.25 273.499C266.97 273.778 266.696 274.071 266.429 274.376C263.54 277.691 262.079 281.608 261.428 284.673C261.099 286.224 260.942 287.716 260.96 288.99C260.969 289.612 261.021 290.326 261.177 291.034C261.255 291.386 261.385 291.859 261.617 292.368C261.821 292.814 262.279 293.681 263.219 294.433C265.174 295.996 267.363 295.737 268.216 295.562C269.181 295.364 269.971 294.982 270.465 294.715C271.507 294.153 272.558 293.363 273.502 292.576C275.455 290.947 277.766 288.635 280.039 286.026C283.396 282.175 283.64 276.981 280.678 273.464C279.203 271.713 276.906 270.441 274.158 270.447C271.413 270.453 269.034 271.722 267.25 273.499Z" fill="white"/>
<path fill-rule="evenodd" clip-rule="evenodd" d="M259.589 284.415C258.962 282.194 257.847 279.724 256.047 277.659C255.863 277.448 255.673 277.246 255.479 277.052C251.345 272.934 246.819 278.358 250.642 282.744C252.056 284.367 253.454 285.83 254.723 287.04C254.958 287.264 255.189 287.48 255.415 287.687C257.67 289.748 259.41 290.879 259.912 290.477C260.337 290.137 260.438 288.047 259.846 285.426C259.772 285.096 259.686 284.759 259.589 284.415ZM261.327 285.765C261.324 285.763 261.32 285.761 261.316 285.758C261.343 285.772 261.347 285.776 261.327 285.765ZM259.329 273.499C259.609 273.778 259.883 274.071 260.15 274.376C263.038 277.691 264.499 281.608 265.15 284.673C265.48 286.224 265.636 287.716 265.618 288.99C265.609 289.612 265.558 290.326 265.402 291.034C265.324 291.386 265.194 291.859 264.961 292.368C264.757 292.814 264.299 293.681 263.359 294.433C261.404 295.996 259.215 295.737 258.362 295.562C257.398 295.364 256.607 294.982 256.113 294.715C255.072 294.153 254.021 293.363 253.077 292.576C251.124 290.947 248.812 288.635 246.539 286.026C243.182 282.175 242.938 276.981 245.9 273.464C247.375 271.713 249.673 270.441 252.421 270.447C255.165 270.453 257.545 271.722 259.329 273.499Z" fill="white"/>
<rect x="226" y="292.193" width="62.7104" height="12.0286" rx="3.01707" fill="#844CF5"/>
<rect x="259.2" y="292.193" width="43.2122" height="12.0286" rx="3.01707" fill="#9E70FE"/>
<rect x="229.769" y="304.222" width="29.683" height="27.7984" fill="#844CF5"/>
<path d="M293.376 304.222L299.03 304.222L299.03 310.818L293.376 304.222Z" fill="#844CF5"/>
<path d="M264.996 304.222L259.199 304.222L259.199 311.072L264.996 304.222Z" fill="#844CF5"/>
<rect x="239.664" y="304.222" width="8.95203" height="27.7984" fill="white"/>
<rect x="275.472" y="304.693" width="8.95203" height="27.3272" fill="white"/>
<g opacity="0.8">
<rect x="137.335" y="309.881" width="42.2597" height="18.9118" fill="#00CCF1"/>
<path fill-rule="evenodd" clip-rule="evenodd" d="M159.922 297.67C160.303 296.309 160.981 294.796 162.076 293.53C162.188 293.401 162.303 293.277 162.421 293.159C164.935 290.635 167.686 293.959 165.362 296.646C164.503 297.64 163.652 298.537 162.881 299.278C162.738 299.415 162.597 299.548 162.46 299.674C161.089 300.937 160.031 301.63 159.726 301.384C159.467 301.175 159.406 299.895 159.766 298.289C159.811 298.087 159.863 297.88 159.922 297.67ZM158.865 298.497C158.867 298.495 158.87 298.494 158.872 298.493C158.856 298.501 158.853 298.503 158.865 298.497ZM160.081 290.982C159.91 291.153 159.744 291.332 159.581 291.519C157.825 293.55 156.937 295.95 156.541 297.828C156.341 298.778 156.246 299.692 156.256 300.473C156.262 300.854 156.293 301.291 156.388 301.725C156.435 301.941 156.514 302.23 156.656 302.542C156.78 302.816 157.058 303.346 157.63 303.807C158.818 304.765 160.149 304.606 160.668 304.499C161.255 304.377 161.735 304.143 162.036 303.98C162.669 303.635 163.308 303.152 163.882 302.669C165.069 301.671 166.475 300.255 167.857 298.657C169.898 296.297 170.046 293.115 168.245 290.96C167.348 289.887 165.952 289.108 164.281 289.112C162.612 289.116 161.165 289.893 160.081 290.982Z" fill="white"/>
<path fill-rule="evenodd" clip-rule="evenodd" d="M155.423 297.67C155.042 296.309 154.364 294.796 153.269 293.53C153.158 293.401 153.042 293.277 152.924 293.159C150.411 290.635 147.659 293.959 149.983 296.646C150.843 297.64 151.693 298.537 152.464 299.278C152.608 299.415 152.748 299.548 152.885 299.674C154.256 300.937 155.314 301.63 155.62 301.384C155.878 301.175 155.939 299.895 155.579 298.289C155.534 298.087 155.482 297.88 155.423 297.67ZM156.48 298.497C156.478 298.495 156.476 298.494 156.473 298.493C156.489 298.501 156.492 298.503 156.48 298.497ZM155.265 290.982C155.435 291.153 155.602 291.332 155.764 291.519C157.52 293.55 158.408 295.95 158.804 297.828C159.005 298.778 159.1 299.692 159.089 300.473C159.084 300.854 159.052 301.291 158.957 301.725C158.91 301.941 158.831 302.23 158.69 302.542C158.565 302.816 158.287 303.346 157.716 303.807C156.527 304.765 155.196 304.606 154.677 304.499C154.091 304.377 153.61 304.143 153.31 303.98C152.676 303.635 152.037 303.152 151.464 302.669C150.276 301.671 148.871 300.255 147.488 298.657C145.447 296.297 145.299 293.115 147.1 290.96C147.997 289.887 149.394 289.108 151.065 289.112C152.733 289.116 154.18 289.893 155.265 290.982Z" fill="white"/>
<rect x="135" y="302.41" width="38.5241" height="7.47133" rx="1.88414" fill="#018BD4"/>
<rect x="155.079" y="302.41" width="26.3831" height="7.47133" rx="1.88414" fill="#00CCF1"/>
<rect x="137.335" y="309.881" width="17.7444" height="20.7796" fill="#01A9D2"/>
<path d="M175.625 309.881L179.595 309.881L179.595 314.084L175.625 309.881Z" fill="#01A9D2"/>
<path d="M158.815 309.881L155.079 309.881L155.079 314.084L158.815 309.881Z" fill="#01A9D2"/>
<rect x="143.405" y="309.881" width="5.37002" height="21.4801" fill="white"/>
<rect x="165.119" y="309.881" width="5.37002" height="22.1805" fill="white"/>
</g>
<ellipse cx="12.851" cy="12.4196" rx="12.851" ry="12.4196" transform="matrix(-1 0 0 1 116.856 291.82)" fill="#FFDE68"/>
<ellipse cx="12.851" cy="12.4196" rx="12.851" ry="12.4196" transform="matrix(-1 0 0 1 116.856 291.82)" fill="url(#paint16_linear_52_1082)"/>
<ellipse cx="12.4615" cy="12.4196" rx="12.4615" ry="12.4196" transform="matrix(-1 0 0 1 101.279 295.701)" fill="#68B6FF"/>
<ellipse cx="12.4615" cy="12.4196" rx="12.4615" ry="12.4196" transform="matrix(-1 0 0 1 101.279 295.701)" fill="url(#paint17_linear_52_1082)"/>
<path d="M125.424 292.234C119.531 301.781 116.89 307.228 113.741 317.074" stroke="white" stroke-width="1.49179"/>
<rect width="81" height="28.7203" rx="14.3601" transform="matrix(-1 0 0 1 141 305.792)" fill="#F6F214"/>
<mask id="mask4_52_1082" style="mask-type:alpha" maskUnits="userSpaceOnUse" x="60" y="305" width="81" height="30">
<rect width="81" height="28.7203" rx="14.3601" transform="matrix(-1 0 0 1 141 305.792)" fill="#474694"/>
</mask>
<g mask="url(#mask4_52_1082)">
<rect width="81" height="28.7203" rx="14.3601" transform="matrix(-1 0 0 1 174.491 305.792)" fill="#FDA71D"/>
</g>
<ellipse cx="12.0718" cy="12.0318" rx="12.0718" ry="12.0318" transform="matrix(-0.996533 -0.0832006 -0.0837597 0.996486 138.851 278.894)" fill="#DD56FF"/>
<ellipse cx="12.0718" cy="12.0318" rx="12.0718" ry="12.0318" transform="matrix(-0.996533 -0.0832006 -0.0837597 0.996486 138.851 278.894)" fill="url(#paint18_linear_52_1082)"/>
<path d="M121.121 294.551C126.94 299.71 136.274 293.712 131.22 286.358C126.166 279.004 117.761 288.039 125.167 290.878" stroke="white" stroke-width="2.23768" stroke-linecap="round" stroke-linejoin="round"/>
<rect x="-2" y="328" width="378" height="16" fill="#FFEDFD"/>
<defs>
<filter id="filter0_f_52_1082" x="-111.8" y="11.2" width="603.6" height="603.6" filterUnits="userSpaceOnUse" color-interpolation-filters="sRGB">
<feFlood flood-opacity="0" result="BackgroundImageFix"/>
<feBlend mode="normal" in="SourceGraphic" in2="BackgroundImageFix" result="shape"/>
<feGaussianBlur stdDeviation="116.9" result="effect1_foregroundBlur_52_1082"/>
</filter>
<filter id="filter1_f_52_1082" x="317.026" y="170.026" width="8.66806" height="8.66806" filterUnits="userSpaceOnUse" color-interpolation-filters="sRGB">
<feFlood flood-opacity="0" result="BackgroundImageFix"/>
<feBlend mode="normal" in="SourceGraphic" in2="BackgroundImageFix" result="shape"/>
<feGaussianBlur stdDeviation="0.524253" result="effect1_foregroundBlur_52_1082"/>
</filter>
<filter id="filter2_f_52_1082" x="35.3564" y="180.356" width="10.6869" height="10.6869" filterUnits="userSpaceOnUse" color-interpolation-filters="sRGB">
<feFlood flood-opacity="0" result="BackgroundImageFix"/>
<feBlend mode="normal" in="SourceGraphic" in2="BackgroundImageFix" result="shape"/>
<feGaussianBlur stdDeviation="0.524253" result="effect1_foregroundBlur_52_1082"/>
</filter>
<filter id="filter3_f_52_1082" x="308.182" y="265.182" width="7.03601" height="7.03604" filterUnits="userSpaceOnUse" color-interpolation-filters="sRGB">
<feFlood flood-opacity="0" result="BackgroundImageFix"/>
<feBlend mode="normal" in="SourceGraphic" in2="BackgroundImageFix" result="shape"/>
<feGaussianBlur stdDeviation="0.524253" result="effect1_foregroundBlur_52_1082"/>
</filter>
<filter id="filter4_f_52_1082" x="64.0747" y="101.075" width="26.571" height="26.571" filterUnits="userSpaceOnUse" color-interpolation-filters="sRGB">
<feFlood flood-opacity="0" result="BackgroundImageFix"/>
<feBlend mode="normal" in="SourceGraphic" in2="BackgroundImageFix" result="shape"/>
<feGaussianBlur stdDeviation="5" result="effect1_foregroundBlur_52_1082"/>
</filter>
<filter id="filter5_f_52_1082" x="161.075" y="267.075" width="16.571" height="16.571" filterUnits="userSpaceOnUse" color-interpolation-filters="sRGB">
<feFlood flood-opacity="0" result="BackgroundImageFix"/>
<feBlend mode="normal" in="SourceGraphic" in2="BackgroundImageFix" result="shape"/>
<feGaussianBlur stdDeviation="2.5" result="effect1_foregroundBlur_52_1082"/>
</filter>
<filter id="filter6_f_52_1082" x="285.075" y="109.075" width="16.571" height="16.571" filterUnits="userSpaceOnUse" color-interpolation-filters="sRGB">
<feFlood flood-opacity="0" result="BackgroundImageFix"/>
<feBlend mode="normal" in="SourceGraphic" in2="BackgroundImageFix" result="shape"/>
<feGaussianBlur stdDeviation="2.5" result="effect1_foregroundBlur_52_1082"/>
</filter>
<filter id="filter7_f_52_1082" x="-250.2" y="-59.2" width="500.4" height="499.4" filterUnits="userSpaceOnUse" color-interpolation-filters="sRGB">
<feFlood flood-opacity="0" result="BackgroundImageFix"/>
<feBlend mode="normal" in="SourceGraphic" in2="BackgroundImageFix" result="shape"/>
<feGaussianBlur stdDeviation="94.1" result="effect1_foregroundBlur_52_1082"/>
</filter>
<linearGradient id="paint0_linear_52_1082" x1="187.5" y1="58" x2="187.5" y2="343" gradientUnits="userSpaceOnUse">
<stop/>
<stop offset="1" stop-color="#381438"/>
</linearGradient>
<linearGradient id="paint1_linear_52_1082" x1="321.36" y1="171.076" x2="321.36" y2="177.645" gradientUnits="userSpaceOnUse">
<stop stop-color="#FFDFEC"/>
<stop offset="1" stop-color="#FAB3C5"/>
</linearGradient>
<linearGradient id="paint2_linear_52_1082" x1="40.6999" y1="181.406" x2="40.6999" y2="189.994" gradientUnits="userSpaceOnUse">
<stop stop-color="#FFFCDF"/>
<stop offset="1" stop-color="#90394F"/>
</linearGradient>
<linearGradient id="paint3_linear_52_1082" x1="311.7" y1="266.231" x2="311.7" y2="271.169" gradientUnits="userSpaceOnUse">
<stop stop-color="#FFFCDF"/>
<stop offset="1" stop-color="#90394F"/>
</linearGradient>
<linearGradient id="paint4_linear_52_1082" x1="77.3603" y1="111.076" x2="77.3603" y2="117.645" gradientUnits="userSpaceOnUse">
<stop stop-color="#FFDFEC"/>
<stop offset="1" stop-color="#FAB3C5"/>
</linearGradient>
<linearGradient id="paint5_linear_52_1082" x1="169.36" y1="272.076" x2="169.36" y2="278.645" gradientUnits="userSpaceOnUse">
<stop stop-color="#FFDFEC"/>
<stop offset="1" stop-color="#FAB3C5"/>
</linearGradient>
<linearGradient id="paint6_linear_52_1082" x1="293.36" y1="114.076" x2="293.36" y2="120.645" gradientUnits="userSpaceOnUse">
<stop stop-color="#FFDFEC"/>
<stop offset="1" stop-color="#FAB3C5"/>
</linearGradient>
<linearGradient id="paint7_linear_52_1082" x1="321.585" y1="260.396" x2="333.835" y2="281.183" gradientUnits="userSpaceOnUse">
<stop stop-color="white"/>
<stop offset="1" stop-color="white" stop-opacity="0"/>
</linearGradient>
<linearGradient id="paint8_linear_52_1082" x1="310.918" y1="304.081" x2="323.168" y2="324.869" gradientUnits="userSpaceOnUse">
<stop stop-color="white"/>
<stop offset="1" stop-color="white" stop-opacity="0"/>
</linearGradient>
<linearGradient id="paint9_linear_52_1082" x1="302.466" y1="254.052" x2="312.873" y2="269.773" gradientUnits="userSpaceOnUse">
<stop stop-color="white"/>
<stop offset="1" stop-color="white" stop-opacity="0"/>
</linearGradient>
<linearGradient id="paint10_linear_52_1082" x1="302.466" y1="254.052" x2="312.873" y2="269.773" gradientUnits="userSpaceOnUse">
<stop stop-color="white"/>
<stop offset="1" stop-color="white" stop-opacity="0"/>
</linearGradient>
<linearGradient id="paint11_linear_52_1082" x1="300.226" y1="251.46" x2="311.857" y2="269.031" gradientUnits="userSpaceOnUse">
<stop stop-color="white"/>
<stop offset="1" stop-color="white" stop-opacity="0"/>
</linearGradient>
<linearGradient id="paint12_linear_52_1082" x1="336.636" y1="297.23" x2="347.043" y2="312.951" gradientUnits="userSpaceOnUse">
<stop stop-color="white"/>
<stop offset="1" stop-color="white" stop-opacity="0"/>
</linearGradient>
<linearGradient id="paint13_linear_52_1082" x1="336.636" y1="297.23" x2="347.043" y2="312.951" gradientUnits="userSpaceOnUse">
<stop stop-color="white"/>
<stop offset="1" stop-color="white" stop-opacity="0"/>
</linearGradient>
<linearGradient id="paint14_linear_52_1082" x1="334.395" y1="294.638" x2="346.026" y2="312.208" gradientUnits="userSpaceOnUse">
<stop stop-color="white"/>
<stop offset="1" stop-color="white" stop-opacity="0"/>
</linearGradient>
<linearGradient id="paint15_linear_52_1082" x1="322.119" y1="221.104" x2="331.264" y2="234.918" gradientUnits="userSpaceOnUse">
<stop stop-color="white"/>
<stop offset="1" stop-color="white" stop-opacity="0"/>
</linearGradient>
<linearGradient id="paint16_linear_52_1082" x1="-5.27219" y1="-13.6934" x2="24.2511" y2="32.4548" gradientUnits="userSpaceOnUse">
<stop stop-color="white"/>
<stop offset="1" stop-color="white" stop-opacity="0"/>
</linearGradient>
<linearGradient id="paint17_linear_52_1082" x1="-5.11243" y1="-13.6934" x2="24.7824" y2="31.6194" gradientUnits="userSpaceOnUse">
<stop stop-color="white"/>
<stop offset="1" stop-color="white" stop-opacity="0"/>
</linearGradient>
<linearGradient id="paint18_linear_52_1082" x1="-6.50022" y1="-17.5849" x2="23.9926" y2="34.3329" gradientUnits="userSpaceOnUse">
<stop stop-color="white"/>
<stop offset="1" stop-color="white" stop-opacity="0"/>
</linearGradient>
</defs>
</svg>
