<svg width="62" height="60" viewBox="0 0 62 60" fill="none" xmlns="http://www.w3.org/2000/svg">
<g filter="url(#filter0_d_81_3243)">
<ellipse cx="31" cy="29" rx="23" ry="22" fill="white"/>
<path d="M24.6835 35.3088H27.5534L38.0769 25.2428L35.2066 22.4977L24.6835 32.5636V35.3088Z" stroke="white" stroke-width="3" stroke-linejoin="round"/>
<path d="M32.3368 25.2428L35.2067 27.9879" stroke="white" stroke-width="3" stroke-linecap="round" stroke-linejoin="round"/>
</g>
<path d="M26.678 19.87L28.2695 18.28L36.938 26.9455C37.0777 27.0843 37.1886 27.2495 37.2643 27.4313C37.3399 27.6132 37.3789 27.8082 37.3789 28.0052C37.3789 28.2022 37.3399 28.3973 37.2643 28.5791C37.1886 28.761 37.0777 28.9261 36.938 29.065L28.2695 37.735L26.6795 36.145L34.8155 28.0075L26.678 19.87Z" fill="#918889"/>
<defs>
<filter id="filter0_d_81_3243" x="0.2" y="0.2" width="61.6" height="59.6" filterUnits="userSpaceOnUse" color-interpolation-filters="sRGB">
<feFlood flood-opacity="0" result="BackgroundImageFix"/>
<feColorMatrix in="SourceAlpha" type="matrix" values="0 0 0 0 0 0 0 0 0 0 0 0 0 0 0 0 0 0 127 0" result="hardAlpha"/>
<feOffset dy="1"/>
<feGaussianBlur stdDeviation="3.9"/>
<feComposite in2="hardAlpha" operator="out"/>
<feColorMatrix type="matrix" values="0 0 0 0 0 0 0 0 0 0 0 0 0 0 0 0 0 0 0.25 0"/>
<feBlend mode="normal" in2="BackgroundImageFix" result="effect1_dropShadow_81_3243"/>
<feBlend mode="normal" in="SourceGraphic" in2="effect1_dropShadow_81_3243" result="shape"/>
</filter>
</defs>
</svg>
