<svg width="62" height="60" viewBox="0 0 62 60" fill="none" xmlns="http://www.w3.org/2000/svg">
<g filter="url(#filter0_d_58_1650)">
<ellipse cx="30.9999" cy="29" rx="23" ry="22" transform="rotate(-180 30.9999 29)" fill="white"/>
<path d="M37.3164 22.6912H34.4465L23.923 32.7572L26.7932 35.5023L37.3164 25.4364V22.6912Z" stroke="white" stroke-width="3" stroke-linejoin="round"/>
<path d="M29.6631 32.7572L26.7932 30.0121" stroke="white" stroke-width="3" stroke-linecap="round" stroke-linejoin="round"/>
</g>
<path d="M35.3219 38.13L33.7304 39.72L25.0619 31.0545C24.9222 30.9157 24.8113 30.7505 24.7356 30.5687C24.6599 30.3868 24.621 30.1918 24.621 29.9948C24.621 29.7978 24.6599 29.6027 24.7356 29.4209C24.8113 29.239 24.9222 29.0739 25.0619 28.935L33.7304 20.265L35.3204 21.855L27.1844 29.9925L35.3219 38.13Z" fill="#918889"/>
<defs>
<filter id="filter0_d_58_1650" x="0.199878" y="0.2" width="61.6" height="59.6" filterUnits="userSpaceOnUse" color-interpolation-filters="sRGB">
<feFlood flood-opacity="0" result="BackgroundImageFix"/>
<feColorMatrix in="SourceAlpha" type="matrix" values="0 0 0 0 0 0 0 0 0 0 0 0 0 0 0 0 0 0 127 0" result="hardAlpha"/>
<feOffset dy="1"/>
<feGaussianBlur stdDeviation="3.9"/>
<feComposite in2="hardAlpha" operator="out"/>
<feColorMatrix type="matrix" values="0 0 0 0 0 0 0 0 0 0 0 0 0 0 0 0 0 0 0.25 0"/>
<feBlend mode="normal" in2="BackgroundImageFix" result="effect1_dropShadow_58_1650"/>
<feBlend mode="normal" in="SourceGraphic" in2="effect1_dropShadow_58_1650" result="shape"/>
</filter>
</defs>
</svg>
